<?xml version="1.0" encoding="UTF-8" standalone="no"?>
<!-- Created with Inkscape (http://www.inkscape.org/) -->

<svg
   xmlns:dc="http://purl.org/dc/elements/1.1/"
   xmlns:cc="http://creativecommons.org/ns#"
   xmlns:rdf="http://www.w3.org/1999/02/22-rdf-syntax-ns#"
   xmlns:svg="http://www.w3.org/2000/svg"
   xmlns="http://www.w3.org/2000/svg"
   xmlns:sodipodi="http://sodipodi.sourceforge.net/DTD/sodipodi-0.dtd"
   xmlns:inkscape="http://www.inkscape.org/namespaces/inkscape"
   width="71.120972mm"
   height="32.794739mm"
   viewBox="0 0 71.120972 32.794739"
   version="1.1"
   id="svg2572"
   inkscape:version="0.92.3 (2405546, 2018-03-11)"
   sodipodi:docname="logo-hawks.svg"
   inkscape:export-filename="/home/simone/Downloads/logo-marchesa-sfondo-bianco.png"
   inkscape:export-xdpi="150.25581"
   inkscape:export-ydpi="150.25581">
  <defs
     id="defs2566">
    <inkscape:path-effect
       effect="bspline"
       id="path-effect15875-63"
       is_visible="true"
       weight="33.333333"
       steps="2"
       helper_size="0"
       apply_no_weight="true"
       apply_with_weight="true"
       only_selected="false" />
    <inkscape:path-effect
       effect="bspline"
       id="path-effect15879-9"
       is_visible="true"
       weight="33.333333"
       steps="2"
       helper_size="0"
       apply_no_weight="true"
       apply_with_weight="true"
       only_selected="false" />
    <inkscape:path-effect
       effect="bspline"
       id="path-effect15875-6-4"
       is_visible="true"
       weight="33.333333"
       steps="2"
       helper_size="0"
       apply_no_weight="true"
       apply_with_weight="true"
       only_selected="false" />
    <inkscape:path-effect
       effect="bspline"
       id="path-effect15879-7-8"
       is_visible="true"
       weight="33.333333"
       steps="2"
       helper_size="0"
       apply_no_weight="true"
       apply_with_weight="true"
       only_selected="false" />
    <inkscape:path-effect
       effect="bspline"
       id="path-effect15914-1"
       is_visible="true"
       weight="33.333333"
       steps="2"
       helper_size="0"
       apply_no_weight="true"
       apply_with_weight="true"
       only_selected="false" />
    <inkscape:path-effect
       effect="bspline"
       id="path-effect15918-2"
       is_visible="true"
       weight="33.333333"
       steps="2"
       helper_size="0"
       apply_no_weight="true"
       apply_with_weight="true"
       only_selected="false" />
    <inkscape:path-effect
       effect="bspline"
       id="path-effect15308-9"
       is_visible="true"
       weight="33.333333"
       steps="2"
       helper_size="0"
       apply_no_weight="true"
       apply_with_weight="true"
       only_selected="false" />
    <inkscape:path-effect
       effect="bspline"
       id="path-effect15327-3"
       is_visible="true"
       weight="33.333333"
       steps="2"
       helper_size="0"
       apply_no_weight="true"
       apply_with_weight="true"
       only_selected="false" />
    <inkscape:path-effect
       effect="bspline"
       id="path-effect15345-8"
       is_visible="true"
       weight="33.333333"
       steps="2"
       helper_size="0"
       apply_no_weight="true"
       apply_with_weight="true"
       only_selected="false" />
    <inkscape:path-effect
       effect="bspline"
       id="path-effect6226-6"
       is_visible="true"
       weight="33.333333"
       steps="2"
       helper_size="0"
       apply_no_weight="true"
       apply_with_weight="true"
       only_selected="false" />
    <inkscape:path-effect
       effect="bspline"
       id="path-effect6230-5"
       is_visible="true"
       weight="33.333333"
       steps="2"
       helper_size="0"
       apply_no_weight="true"
       apply_with_weight="true"
       only_selected="false" />
    <inkscape:path-effect
       effect="bspline"
       id="path-effect6234-2"
       is_visible="true"
       weight="33.333333"
       steps="2"
       helper_size="0"
       apply_no_weight="true"
       apply_with_weight="true"
       only_selected="false" />
  </defs>
  <sodipodi:namedview
     id="base"
     pagecolor="#ffffff"
     bordercolor="#666666"
     borderopacity="1.0"
     inkscape:pageopacity="0.0"
     inkscape:pageshadow="2"
     inkscape:zoom="1.979899"
     inkscape:cx="242.54851"
     inkscape:cy="80.722073"
     inkscape:document-units="mm"
     inkscape:current-layer="layer1"
     showgrid="false"
     fit-margin-top="0"
     fit-margin-left="0"
     fit-margin-right="0"
     fit-margin-bottom="0"
     inkscape:window-width="2482"
     inkscape:window-height="1385"
     inkscape:window-x="78"
     inkscape:window-y="27"
     inkscape:window-maximized="1" />
  <metadata
     id="metadata2569">
    <rdf:RDF>
      <cc:Work
         rdf:about="">
        <dc:format>image/svg+xml</dc:format>
        <dc:type
           rdf:resource="http://purl.org/dc/dcmitype/StillImage" />
        <dc:title />
      </cc:Work>
    </rdf:RDF>
  </metadata>
  <g
     inkscape:label="Layer 1"
     inkscape:groupmode="layer"
     id="layer1"
     transform="translate(-69.516894,-34.162145)">
    <g
       aria-label="LUDOTECA"
       style="font-style:normal;font-variant:normal;font-weight:normal;font-stretch:normal;font-size:8.51864529px;line-height:1.25;font-family:'Agent Red';-inkscape-font-specification:'Agent Red, Normal';font-variant-ligatures:normal;font-variant-caps:normal;font-variant-numeric:normal;font-feature-settings:normal;text-align:start;letter-spacing:0px;word-spacing:0px;writing-mode:lr-tb;text-anchor:start;fill:#000000;fill-opacity:1;stroke:none;stroke-width:0.2129661"
       id="text2431-3-1-6-9">
      <path
         d="m 75.951258,41.394475 -0.170373,2.947452 -4.813035,0.102223 0.04259,-0.868902 -0.894457,0.01704 0.477044,-8.944578 2.487444,-0.04259 -0.04259,0.868902 0.894458,-0.01704 -0.238522,5.068594 1.405576,0.01704 -0.05111,0.843346 z m -1.124462,-0.596305 -2.291515,-0.03408 0.272597,-5.894902 -1.976326,0.03407 -0.451488,8.42494 4.301915,-0.08519 z"
         style="font-style:normal;font-variant:normal;font-weight:normal;font-stretch:normal;font-size:8.51864529px;font-family:'Agent Red';-inkscape-font-specification:'Agent Red, Normal';font-variant-ligatures:normal;font-variant-caps:normal;font-variant-numeric:normal;font-feature-settings:normal;text-align:start;writing-mode:lr-tb;text-anchor:start;stroke-width:0.2129661"
         id="path133" />
      <path
         d="m 85.544716,38.617397 q 0.05963,0.775197 0.05963,1.345946 0,2.061512 -0.775197,3.083749 -0.962607,1.26076 -3.33079,1.354465 -1.814472,0.07667 -2.615224,-1.226685 -0.94557,-0.56223 -1.32039,-1.984844 -0.230004,-0.894458 -0.289634,-2.632262 -0.03408,-0.783715 -0.03408,-3.688573 l 2.708929,-0.366302 q -0.0085,0.383339 -0.02556,0.971126 l 0.877421,-0.119261 q -0.0085,0.366301 -0.04259,1.533356 -0.03408,0.937051 -0.03408,1.465207 0,1.422614 0.170373,2.172254 0.340746,-0.03407 0.511119,-0.332227 0.170373,-0.298152 0.212966,-0.962607 0.01704,-0.238522 0.01704,-0.536674 0,-0.562231 -0.07667,-1.695211 -0.119261,-1.874102 -0.144817,-2.214847 l 3.075231,-0.230004 q 0.0085,0.44297 0.03408,0.911495 l 0.81779,-0.05963 q 0.01704,0.536674 0.204447,3.211529 z M 84.241364,34.8266 81.68577,35.022529 q 0.0085,0.221484 0.12778,2.027437 0.07667,1.081868 0.07667,1.652617 0,1.090387 -0.238523,1.567431 -0.272596,0.545193 -0.945569,0.511119 -0.63038,-0.03407 -0.885939,-1.013719 -0.204448,-0.766678 -0.204448,-2.26596 0,-0.519637 0.03408,-1.388539 0.02556,-1.06483 0.03407,-1.32039 l -2.189291,0.298153 q 0,3.364865 0.08519,4.429695 0.161854,1.984845 0.775197,2.845228 0.715566,0.996681 2.282997,0.928532 2.240403,-0.0937 3.14338,-1.269278 0.715566,-0.94557 0.715566,-2.862265 0,-0.707047 -0.119261,-2.121142 Q 84.258401,35.51661 84.241364,34.8266 Z"
         style="font-style:normal;font-variant:normal;font-weight:normal;font-stretch:normal;font-size:8.51864529px;font-family:'Agent Red';-inkscape-font-specification:'Agent Red, Normal';font-variant-ligatures:normal;font-variant-caps:normal;font-variant-numeric:normal;font-feature-settings:normal;text-align:start;writing-mode:lr-tb;text-anchor:start;stroke-width:0.2129661"
         id="path135" />
      <path
         d="m 94.425671,39.988899 q -0.01704,2.444851 -1.44817,3.586349 -1.167054,0.920014 -3.14338,0.920014 -0.962607,0 -2.018919,-0.221485 l 0.01704,-0.707047 q -0.434451,-0.05111 -0.868902,-0.144817 l 0.153335,-9.004208 q 2.58115,-0.02556 3.944133,0.366302 1.362983,0.391857 1.933733,1.311871 0.826308,0.519637 1.150017,1.499281 0.289634,0.860384 0.281115,2.39374 z m -1.107424,-0.851865 q 0.0085,-1.788915 -0.391858,-2.649298 -0.468525,-1.005201 -1.720766,-1.422614 -1.277797,-0.417414 -3.83339,-0.391858 l -0.144817,8.544201 q 0.928532,0.195929 1.797434,0.195929 1.840027,0 2.930414,-0.87742 1.345946,-1.081868 1.362983,-3.39894 z m -2.078549,-0.144817 q 0,0.920014 -0.195929,1.32039 -0.195929,0.391858 -0.638899,0.494082 -0.281115,0.06815 -1.098905,0.06815 v -3.927096 q 1.277797,-0.05963 1.652617,0.434451 0.281116,0.366302 0.281116,1.610024 z m -0.25556,0 q 0,-0.647417 -0.04259,-0.920013 -0.221485,-0.02556 -0.528156,-0.02556 v 2.495963 q 0.383339,-0.12778 0.511119,-0.664455 0.05963,-0.272596 0.05963,-0.885939 z"
         style="font-style:normal;font-variant:normal;font-weight:normal;font-stretch:normal;font-size:8.51864529px;font-family:'Agent Red';-inkscape-font-specification:'Agent Red, Normal';font-variant-ligatures:normal;font-variant-caps:normal;font-variant-numeric:normal;font-feature-settings:normal;text-align:start;writing-mode:lr-tb;text-anchor:start;stroke-width:0.2129661"
         id="path137" />
      <path
         d="m 105.38278,39.648153 q 0,1.916695 -1.29484,3.279678 -1.28631,1.362984 -3.11782,1.362984 -1.022237,0 -1.933732,-0.468526 -0.877421,-0.451488 -1.499282,-1.260759 -0.843346,-0.647417 -1.328908,-1.618543 -0.494082,-1.0052 -0.494082,-2.146699 0,-1.908176 1.286316,-3.271159 1.286315,-1.362984 3.117828,-1.362984 1.03075,0 1.94225,0.468526 0.87742,0.451488 1.49076,1.260759 0.85186,0.647417 1.32891,1.618543 0.5026,1.0052 0.5026,2.13818 z m -1.10743,-0.851865 q 0,-1.814471 -1.21816,-3.092268 -1.21817,-1.286315 -2.93893,-1.286315 -1.720771,0 -2.938937,1.286315 -1.209647,1.277797 -1.209647,3.092268 0,1.822991 1.209647,3.100787 1.218166,1.286316 2.938937,1.286316 1.72076,0 2.93893,-1.286316 1.21816,-1.277796 1.21816,-3.100787 z m -2.71744,-1.405576 q 0.43445,0.417414 0.43445,1.081868 0,0.766678 -0.57075,1.371502 -0.60483,0.621861 -1.4141,0.621861 -0.621858,0 -1.039271,-0.408895 -0.44297,-0.425932 -0.44297,-1.081868 0,-0.775197 0.579268,-1.371502 0.604824,-0.63038 1.405573,-0.63038 0.62186,0 1.0478,0.417414 z m 0.1363,0.732603 q -0.16186,-0.03407 -0.34075,-0.03407 -0.69001,0 -1.20965,0.536675 -0.511117,0.528156 -0.511117,1.19261 0,0.178891 0.04259,0.349264 0.161854,0.04259 0.340744,0.04259 0.69001,0 1.21817,-0.545194 0.5026,-0.528156 0.5026,-1.19261 0,-0.178892 -0.0426,-0.349265 z"
         style="font-style:normal;font-variant:normal;font-weight:normal;font-stretch:normal;font-size:8.51864529px;font-family:'Agent Red';-inkscape-font-specification:'Agent Red, Normal';font-variant-ligatures:normal;font-variant-caps:normal;font-variant-numeric:normal;font-feature-settings:normal;text-align:start;writing-mode:lr-tb;text-anchor:start;stroke-width:0.2129661"
         id="path139" />
      <path
         d="m 114.19319,38.506654 -2.35115,-0.06815 0.17037,5.792679 -3.25412,0.136298 0.0682,-0.885939 -0.92001,0.03408 0.42593,-5.179336 -0.92853,-0.02556 0.0596,-0.826309 -0.9115,-0.02556 0.20445,-2.845227 6.49121,0.06815 0.0255,0.843346 0.82631,0.0085 z m -1.11595,-1.115942 -0.0767,-2.45337 -6.00565,-0.06815 -0.17037,2.342627 1.85706,0.05111 -0.5026,5.988608 2.71745,-0.119261 -0.17037,-5.809716 z"
         style="font-style:normal;font-variant:normal;font-weight:normal;font-stretch:normal;font-size:8.51864529px;font-family:'Agent Red';-inkscape-font-specification:'Agent Red, Normal';font-variant-ligatures:normal;font-variant-caps:normal;font-variant-numeric:normal;font-feature-settings:normal;text-align:start;writing-mode:lr-tb;text-anchor:start;stroke-width:0.2129661"
         id="path141" />
      <path
         d="m 121.67549,35.269569 -0.17889,2.708929 -1.73781,0.01704 -0.0426,0.715566 0.90297,0.03408 -0.12777,2.257441 -0.1789,-0.0085 0.0256,0.613342 h 0.81779 l 0.10222,2.717448 -5.05155,0.06815 0.0596,-0.860383 -0.9115,0.0085 0.6389,-9.123469 h 4.83007 l -0.0596,0.851864 z m -1.12446,-0.596305 h -4.31896 l -0.60482,8.61235 4.51488,-0.06815 -0.0852,-2.206329 -2.13818,-0.0085 0.0511,-1.158536 1.43113,0.04259 0.0937,-1.746322 -1.44817,-0.05111 0.0511,-1.184092 2.30855,-0.03407 z"
         style="font-style:normal;font-variant:normal;font-weight:normal;font-stretch:normal;font-size:8.51864529px;font-family:'Agent Red';-inkscape-font-specification:'Agent Red, Normal';font-variant-ligatures:normal;font-variant-caps:normal;font-variant-numeric:normal;font-feature-settings:normal;text-align:start;writing-mode:lr-tb;text-anchor:start;stroke-width:0.2129661"
         id="path143" />
      <path
         d="m 129.92806,43.728584 q -0.69853,0.119261 -2.053,0.289634 -0.31519,0.02556 -0.61334,0.02556 -2.17225,0 -3.0156,-1.362983 -1.5078,-0.928533 -1.38854,-3.569313 0.0852,-2.044475 0.88594,-3.262641 0.97964,-1.482244 2.88782,-1.482244 0.95409,0 2.12966,0.383339 l -0.0341,0.604824 q 0.42593,0.0937 0.88594,0.24704 l -0.12778,2.359665 q -0.0682,0 -0.51964,-0.02556 -0.34075,-0.01704 -0.56223,-0.01704 -0.92002,0 -1.38002,0.281115 -0.61334,0.383339 -0.60483,1.337428 0,0.230003 0.0596,0.425932 0.35779,0.119261 0.83483,0.119261 0.67297,0 1.54188,-0.238522 l 0.0767,1.030756 q 0.36631,-0.05963 0.7752,-0.178892 z m -1.12447,-1.064831 -0.17889,-2.487444 q -0.70704,0.195929 -1.32039,0.195929 -0.91149,0 -1.44817,-0.434451 -0.53667,-0.434451 -0.54519,-1.252241 -0.017,-1.882621 2.2404,-1.882621 0.22149,0 0.5026,0.01704 0.32371,0.02556 0.34075,0.02556 l 0.10222,-1.916696 q -1.04779,-0.340745 -1.90817,-0.340745 -1.74633,0 -2.64078,1.388539 -0.74964,1.167054 -0.83483,3.14338 -0.17037,3.816353 3.27116,3.816353 0.7326,0 2.41929,-0.272597 z"
         style="font-style:normal;font-variant:normal;font-weight:normal;font-stretch:normal;font-size:8.51864529px;font-family:'Agent Red';-inkscape-font-specification:'Agent Red, Normal';font-variant-ligatures:normal;font-variant-caps:normal;font-variant-numeric:normal;font-feature-settings:normal;text-align:start;writing-mode:lr-tb;text-anchor:start;stroke-width:0.2129661"
         id="path145" />
      <path
         d="m 140.03876,43.532655 -2.93042,1.047794 -0.3237,-1.039275 -0.52816,0.18741 -0.39186,-1.226685 -0.89446,-0.07667 -0.48556,2.018919 -2.513,-1.115942 0.10223,-0.425933 -0.95409,-0.425932 1.99336,-7.896784 3.16894,0.110742 0.30667,0.834828 0.54519,0.01704 z m -1.18409,-1.0052 -2.75153,-7.590113 -2.79411,-0.102224 -1.89114,7.496408 2.03596,0.902977 0.46852,-1.933733 1.88262,0.153336 0.62186,1.942251 z m -3.53524,-3.151899 -1.05631,-0.05111 0.37482,-2.172254 z"
         style="font-style:normal;font-variant:normal;font-weight:normal;font-stretch:normal;font-size:8.51864529px;font-family:'Agent Red';-inkscape-font-specification:'Agent Red, Normal';font-variant-ligatures:normal;font-variant-caps:normal;font-variant-numeric:normal;font-feature-settings:normal;text-align:start;writing-mode:lr-tb;text-anchor:start;stroke-width:0.2129661"
         id="path147" />
    </g>
    <g
       aria-label="DIFFUSA"
       style="font-style:normal;font-variant:normal;font-weight:normal;font-stretch:normal;font-size:8.51864529px;line-height:1.25;font-family:'Agent Red';-inkscape-font-specification:'Agent Red, Normal';font-variant-ligatures:normal;font-variant-caps:normal;font-variant-numeric:normal;font-feature-settings:normal;text-align:start;letter-spacing:2.55559325px;word-spacing:0px;writing-mode:lr-tb;text-anchor:start;fill:#000000;fill-opacity:1;stroke:none;stroke-width:0.2129661"
       id="text2435-8-0-6-6">
      <path
         d="m 76.979227,62.365333 q -0.01704,2.444851 -1.448169,3.58635 -1.167055,0.920013 -3.14338,0.920013 -0.962607,0 -2.018919,-0.221484 l 0.01704,-0.707048 q -0.434451,-0.05111 -0.868902,-0.144817 l 0.153336,-9.004208 q 2.581149,-0.02556 3.944133,0.366302 1.362983,0.391858 1.933732,1.311871 0.826309,0.519638 1.150017,1.499282 0.289634,0.860383 0.281115,2.393739 z m -1.107423,-0.851864 q 0.0085,-1.788916 -0.391858,-2.649299 -0.468526,-1.0052 -1.720766,-1.422614 -1.277797,-0.417413 -3.833391,-0.391858 L 69.780972,65.5939 q 0.928533,0.195929 1.797434,0.195929 1.840028,0 2.930414,-0.877421 1.345946,-1.081868 1.362984,-3.398939 z m -2.07855,-0.144817 q 0,0.920013 -0.195929,1.32039 -0.195929,0.391857 -0.638898,0.494081 -0.281115,0.06815 -1.098905,0.06815 v -3.927095 q 1.277796,-0.05963 1.652617,0.434451 0.281115,0.366301 0.281115,1.610024 z m -0.255559,0 q 0,-0.647417 -0.04259,-0.920014 -0.221485,-0.02556 -0.528156,-0.02556 v 2.495963 q 0.383339,-0.12778 0.511118,-0.664454 0.05963,-0.272597 0.05963,-0.885939 z"
         style="font-style:normal;font-variant:normal;font-weight:normal;font-stretch:normal;font-size:8.51864529px;font-family:'Agent Red';-inkscape-font-specification:'Agent Red, Normal';font-variant-ligatures:normal;font-variant-caps:normal;font-variant-numeric:normal;font-feature-settings:normal;text-align:start;letter-spacing:2.55559325px;writing-mode:lr-tb;text-anchor:start;stroke-width:0.2129661"
         id="path150" />
      <path
         d="m 85.184812,59.451956 q 0,0.5026 -0.298152,0.911495 -0.298153,0.400377 -0.775197,0.579268 v 0.230004 l 0.860383,-0.01704 -0.05111,5.750086 -3.032637,-0.01704 0.04259,-0.851865 h -0.894458 l 0.264078,-5.673418 0.741122,-0.01704 q -0.102223,-0.136298 -0.161854,-0.298152 -0.442969,-0.195929 -0.715566,-0.579268 -0.264078,-0.391858 -0.264078,-0.868902 0,-0.672973 0.5026,-1.141499 0.511119,-0.468525 1.218166,-0.468525 0.528156,0 0.962607,0.281115 0.434451,0.272597 0.63038,0.732604 0.434451,0.195929 0.698529,0.587786 0.272596,0.383339 0.272596,0.860383 z m -1.107423,-0.851864 q 0,-0.562231 -0.425933,-0.954088 -0.425932,-0.400377 -1.030756,-0.400377 -0.604824,0 -1.039274,0.400377 -0.425933,0.391857 -0.425933,0.954088 0,0.56223 0.425933,0.962607 0.43445,0.391857 1.039274,0.391857 0.604824,0 1.030756,-0.391857 0.425933,-0.400377 0.425933,-0.962607 z m -0.221485,1.967807 -2.317072,0.04259 -0.238522,5.170818 2.513001,0.01704 z"
         style="font-style:normal;font-variant:normal;font-weight:normal;font-stretch:normal;font-size:8.51864529px;font-family:'Agent Red';-inkscape-font-specification:'Agent Red, Normal';font-variant-ligatures:normal;font-variant-caps:normal;font-variant-numeric:normal;font-feature-settings:normal;text-align:start;letter-spacing:2.55559325px;writing-mode:lr-tb;text-anchor:start;stroke-width:0.2129661"
         id="path152" />
      <path
         d="m 95.202074,60.107892 -2.078549,0.12778 0.04259,0.741122 0.800753,0.02556 0.161854,2.598187 h -1.567431 l 0.04259,3.083749 -2.725966,0.01704 0.01704,-0.860384 -0.868902,0.0085 0.18741,-8.791242 5.017483,-0.281115 0.04259,0.902976 0.809271,-0.05111 z m -1.124461,-1.090387 -0.0937,-1.967807 -4.523401,0.247041 -0.178891,8.297161 2.206329,-0.01704 -0.03408,-3.083749 h 1.550394 l -0.12778,-2.095587 -1.44817,-0.05111 -0.01704,-1.167054 z"
         style="font-style:normal;font-variant:normal;font-weight:normal;font-stretch:normal;font-size:8.51864529px;font-family:'Agent Red';-inkscape-font-specification:'Agent Red, Normal';font-variant-ligatures:normal;font-variant-caps:normal;font-variant-numeric:normal;font-feature-settings:normal;text-align:start;letter-spacing:2.55559325px;writing-mode:lr-tb;text-anchor:start;stroke-width:0.2129661"
         id="path154" />
      <path
         d="m 105.06174,60.107892 -2.07855,0.12778 0.0426,0.741122 0.80076,0.02556 0.16185,2.598187 h -1.56743 l 0.0426,3.083749 -2.725964,0.01704 0.01704,-0.860384 -0.868902,0.0085 0.18741,-8.791242 5.017479,-0.281115 0.0426,0.902976 0.80927,-0.05111 z m -1.12446,-1.090387 -0.0937,-1.967807 -4.523398,0.247041 -0.178891,8.297161 2.206329,-0.01704 -0.0341,-3.083749 h 1.55039 l -0.12778,-2.095587 -1.44817,-0.05111 -0.017,-1.167054 z"
         style="font-style:normal;font-variant:normal;font-weight:normal;font-stretch:normal;font-size:8.51864529px;font-family:'Agent Red';-inkscape-font-specification:'Agent Red, Normal';font-variant-ligatures:normal;font-variant-caps:normal;font-variant-numeric:normal;font-feature-settings:normal;text-align:start;letter-spacing:2.55559325px;writing-mode:lr-tb;text-anchor:start;stroke-width:0.2129661"
         id="path156" />
      <path
         d="m 117.17033,60.993831 q 0.0596,0.775197 0.0596,1.345946 0,2.061512 -0.7752,3.08375 -0.96261,1.260759 -3.33079,1.354464 -1.81447,0.07667 -2.61522,-1.226685 -0.94557,-0.56223 -1.32039,-1.984844 -0.23001,-0.894458 -0.28964,-2.632261 -0.0341,-0.783716 -0.0341,-3.688574 l 2.70893,-0.366301 q -0.009,0.383339 -0.0256,0.971125 l 0.87742,-0.119261 q -0.009,0.366302 -0.0426,1.533356 -0.0341,0.937051 -0.0341,1.465207 0,1.422614 0.17038,2.172255 0.34074,-0.03408 0.51111,-0.332227 0.17038,-0.298153 0.21297,-0.962607 0.017,-0.238522 0.017,-0.536675 0,-0.562231 -0.0767,-1.69521 -0.11926,-1.874102 -0.14482,-2.214848 l 3.07523,-0.230004 q 0.009,0.44297 0.0341,0.911495 l 0.81779,-0.05963 q 0.017,0.536675 0.20445,3.211529 z m -1.30336,-3.790797 -2.55559,0.195929 q 0.009,0.221485 0.12778,2.027437 0.0767,1.081868 0.0767,1.652618 0,1.090386 -0.23852,1.56743 -0.2726,0.545194 -0.94557,0.511119 -0.63038,-0.03407 -0.88594,-1.013719 -0.20445,-0.766678 -0.20445,-2.265959 0,-0.519638 0.0341,-1.38854 0.0256,-1.06483 0.0341,-1.32039 l -2.18929,0.298153 q 0,3.364865 0.0852,4.429696 0.16186,1.984844 0.7752,2.845227 0.71557,0.996682 2.283,0.928532 2.2404,-0.0937 3.14338,-1.269278 0.71556,-0.945569 0.71556,-2.862264 0,-0.707048 -0.11926,-2.121143 -0.11926,-1.524838 -0.1363,-2.214848 z"
         style="font-style:normal;font-variant:normal;font-weight:normal;font-stretch:normal;font-size:8.51864529px;font-family:'Agent Red';-inkscape-font-specification:'Agent Red, Normal';font-variant-ligatures:normal;font-variant-caps:normal;font-variant-numeric:normal;font-feature-settings:normal;text-align:start;letter-spacing:2.55559325px;writing-mode:lr-tb;text-anchor:start;stroke-width:0.2129661"
         id="path158" />
      <path
         d="m 128.08724,60.431601 -2.10411,0.655935 q 0.46853,0.374821 0.68149,0.724085 l 0.0511,0.04259 q 0.57926,0.434451 0.80927,0.834828 0.23852,0.400376 0.23852,0.988162 0,0.144817 -0.017,0.323709 -0.10222,1.286315 -0.70705,1.925214 -0.63889,0.672973 -2.1041,0.945569 -0.4089,0.07667 -0.76668,0.07667 -1.33743,0 -1.93373,-1.081868 -1.26076,-0.638898 -1.29484,-2.938932 -0.009,-0.31519 -0.017,-0.460007 0.71556,0 2.03595,-0.0085 -0.14481,-0.153335 -0.26407,-0.298152 -1.55892,-1.362984 -1.54188,-2.427814 0.0341,-1.465207 0.87742,-2.197811 0.7752,-0.664454 2.18077,-0.664454 0.17038,0 0.34927,0.0085 0.80927,0.04259 1.29483,0.289633 0.53668,0.272597 0.8689,0.860384 0.98817,0.528156 1.36299,2.402258 z m -2.48745,0.383339 -0.20444,-0.511119 q -0.0341,-0.08519 -0.0852,-0.12778 l -0.41741,0.136299 -0.0341,-0.08519 q -0.0426,0.03408 -0.0511,0.07667 0.26408,0.161854 0.79223,0.511119 z m 1.33743,-1.414095 q -0.24704,-1.252241 -0.80075,-1.746323 -0.51112,-0.460007 -1.59299,-0.519637 -0.17889,-0.0085 -0.34074,-0.0085 -2.73449,0 -2.79412,2.615224 -0.017,0.783716 1.0052,1.814472 0.37482,0.37482 1.57595,1.328908 0.1363,0.110743 0.1363,0.264078 0,0.170373 -0.14482,0.31519 -0.14482,0.136299 -0.37482,0.161855 -0.53667,-0.08519 -0.58779,-0.911495 l -1.84002,-0.0085 q 0.0256,0.451488 0.0511,0.902976 0.10222,0.920014 0.48556,1.465207 0.54519,0.766678 1.62706,0.766678 0.32371,0 0.69001,-0.06815 1.38854,-0.264078 1.96781,-0.868902 0.54519,-0.579267 0.6389,-1.771878 0.017,-0.170373 0.017,-0.31519 0,-0.511118 -0.20445,-0.860383 -0.20445,-0.349264 -0.74112,-0.749641 -0.62187,-0.408895 -1.25225,-0.826308 -0.63038,-0.417414 -0.72408,-0.75816 -0.0256,-0.110742 -0.0256,-0.195929 0,-0.255559 0.33223,-0.357783 0.15334,-0.04259 0.2726,-0.04259 0.29815,0 0.46,0.323709 l 0.26408,0.647417 z"
         style="font-style:normal;font-variant:normal;font-weight:normal;font-stretch:normal;font-size:8.51864529px;font-family:'Agent Red';-inkscape-font-specification:'Agent Red, Normal';font-variant-ligatures:normal;font-variant-caps:normal;font-variant-numeric:normal;font-feature-settings:normal;text-align:start;letter-spacing:2.55559325px;writing-mode:lr-tb;text-anchor:start;stroke-width:0.2129661"
         id="path160" />
      <path
         d="m 140.63786,65.90909 -2.93041,1.047793 -0.32371,-1.039275 -0.52815,0.18741 -0.39186,-1.226685 -0.89446,-0.07667 -0.48556,2.018919 -2.513,-1.115943 0.10222,-0.425932 -0.95409,-0.425932 1.99337,-7.896785 3.16893,0.110743 0.30667,0.834827 0.5452,0.01704 z m -1.18409,-1.005201 -2.75152,-7.590113 -2.79412,-0.102223 -1.89113,7.496408 2.03595,0.902976 0.46853,-1.933733 1.88262,0.153336 0.62186,1.942251 z m -3.53524,-3.151898 -1.05631,-0.05111 0.37482,-2.172255 z"
         style="font-style:normal;font-variant:normal;font-weight:normal;font-stretch:normal;font-size:8.51864529px;font-family:'Agent Red';-inkscape-font-specification:'Agent Red, Normal';font-variant-ligatures:normal;font-variant-caps:normal;font-variant-numeric:normal;font-feature-settings:normal;text-align:start;letter-spacing:2.55559325px;writing-mode:lr-tb;text-anchor:start;stroke-width:0.2129661"
         id="path162" />
    </g>
    <g
       transform="matrix(0.0223695,0,0,0.0223695,88.391571,45.200946)"
       id="g25-5-5-8-5-6">
      <path
         style="fill:#ef3750"
         inkscape:connector-curvature="0"
         d="m 396.5,385.7 c -0.5,1.4 -1.8,2.5 -3.4,2.5 -1.7,0 -3,-1.1 -3.4,-2.7 -11.9,-0.3 -27.8,-0.4 -49.2,-0.4 -12.9,0 -26.7,0.1 -40.9,0.2 -0.5,0.3 -1.1,0.5 -1.8,0.5 0,0 0,0 0,0 -0.6,0 -1.2,-0.2 -1.7,-0.5 -21.3,0.2 -43.3,0.4 -64.3,0.7 -0.5,1.4 -1.8,2.3 -3.3,2.3 -1.5,0 -2.8,-0.9 -3.3,-2.2 -36.7,0.5 -70,1.2 -90.6,1.6 -0.5,0.3 -1.1,0.5 -1.7,0.5 -0.6,0 -1.1,-0.2 -1.6,-0.4 -11.4,0.2 -18.2,0.4 -18.5,0.4 -0.7,0 -2.4,0 -4.3,3 -3.6,5.8 -4.1,17.2 -2,22.6 9.6,3.1 81.2,5.2 176.4,5.2 77.2,0 131.1,-1.4 140.5,-2.7 1.7,-5.4 3.1,-22.7 0.1,-28.8 -2.1,-0.5 -8.3,-1.3 -27,-1.8 z"
         id="path5-4-6-2-5-2" />
      <path
         style="fill:#ef3750"
         inkscape:connector-curvature="0"
         d="m 334.6,275.6 c 12.4,0 21.8,-1.4 24.4,-2.6 1.1,-6.4 1.4,-38.5 0,-46.2 -1.8,-0.6 -7.1,-1.5 -18.2,-1.5 -12.4,0 -22.9,1.1 -26.3,2 -1.2,7.4 -1.5,39.9 0.2,45.9 1.6,1 8,2.4 19.9,2.4 z"
         id="path7-4-3-9-1-6" />
      <path
         style="fill:#ef3750"
         inkscape:connector-curvature="0"
         d="m 131.6,201.4 c 11.9,-7.1 38,-26.3 59.7,-42.3 44.3,-32.6 64.4,-46.9 70.2,-46.9 5.9,0 27.6,15.1 85.5,57.8 17.6,13 36.9,27.2 47.9,34.7 0.1,0.1 0.2,0.1 0.3,0.2 3.7,2.5 6.4,4.2 7.8,4.9 4.9,-1.7 19.7,-15.3 20.7,-19.9 -4.6,-4.9 -38.1,-31 -78.7,-61 -14.1,-10.4 -26.4,-19.3 -36.9,-26.8 0,0 0,0 0,0 C 280.4,82.5 265,72.8 261.5,72 c -5.3,1.2 -37.8,21.3 -82.1,52.3 -47.5,33.3 -74.5,55.3 -76.9,60.1 0,1.3 1.2,4.6 5,9 5.6,6.5 13,11 17.8,11 0.2,0 0.3,0 0.5,0 0.9,-0.1 2.5,-0.9 4.7,-2.2 0.3,-0.4 0.7,-0.7 1.1,-0.8 z"
         id="path9-7-9-4-5-1" />
      <path
         style="fill:#ffe6cb"
         inkscape:connector-curvature="0"
         d="m 340.4,377.9 c 21,0 37,0.1 49.1,0.4 V 209.6 c -8.6,-5.9 -22.8,-16.2 -46.7,-33.8 -29.6,-21.8 -74.3,-54.7 -81.3,-56.3 -6,1.4 -39.2,25.8 -66,45.4 -29.8,21.9 -48.5,35.4 -59.2,41.9 v 173.7 c 20.7,-0.4 53,-1 88.5,-1.6 v -92 c 0,-6.6 8.3,-10.2 25.5,-11 10,-0.5 21.9,0.1 31.7,1.5 16.5,2.4 19,6 19.3,9.2 0.7,7.2 0.2,73.9 0.1,91.4 13.5,0 26.6,-0.1 39,-0.1 z M 213.7,276.2 c -0.7,1.8 -2.5,6.6 -26.5,6.6 0,0 0,0 0,0 -6.7,0 -13.6,-0.4 -18.9,-1.2 -7.8,-1.1 -11.2,-2.7 -12.2,-5.5 -1.9,-5.8 -1.9,-45.7 0,-52.2 1,-3.4 5.3,-4.4 9.9,-5 3.8,-0.5 9,-0.8 15,-0.8 6.8,0 14,0.3 19.8,0.9 9.6,1 11.8,2.1 12.8,4.2 2.2,4.4 2.8,45.8 0.1,53 z m 94.6,-52.9 c 1,-2.1 3.2,-3.2 12.8,-4.2 5.8,-0.6 13,-0.9 19.8,-0.9 6,0 11.2,0.3 15,0.8 4.5,0.6 8.9,1.6 9.9,5 1.9,6.4 1.9,46.4 0,52.2 -1,2.9 -4.4,4.4 -12.2,5.5 -5.3,0.8 -12.2,1.2 -18.9,1.2 -24,0 -25.8,-4.8 -26.5,-6.6 -2.8,-7.3 -2.1,-48.7 0.1,-53 z"
         id="path11-32-6-3-0-8" />
      <path
         style="fill:#ef3750"
         inkscape:connector-curvature="0"
         d="m 181,225.4 c -11.1,0 -16.4,0.9 -18.2,1.5 -1.4,7.7 -1.1,39.8 0,46.2 2.6,1.1 12,2.6 24.4,2.6 11.9,0 18.3,-1.4 19.9,-2.3 1.6,-6 1.4,-38.6 0.2,-45.9 -3.4,-1.1 -13.9,-2.1 -26.3,-2.1 z"
         id="path13-52-13-6-6-7" />
      <path
         style="fill:#ef3750"
         inkscape:connector-curvature="0"
         d="m 242.9,283.8 c -8.6,1.1 -10.6,3 -10.9,3.3 v 91.7 c 20.4,-0.3 41.6,-0.5 62.2,-0.7 0.3,-30 0.6,-81.6 0,-90.1 -4.4,-3.3 -32.5,-6.7 -51.3,-4.2 z"
         id="path15-1-86-99-9-9" />
      <path
         style="fill:#ef3750"
         inkscape:connector-curvature="0"
         d="m 349.7,123.3 c 3.5,2.6 6.9,5.1 10.4,7.7 0.3,-27.6 -0.3,-56.1 -2.1,-61.4 -5.5,-2.1 -36.6,-0.9 -43.2,0.6 -1.3,3.2 -1.7,15.7 -1.3,26.7 13.1,9.5 26.1,19 36.2,26.4 z"
         id="path17-5-08-01-3-2" />
      <path
         style="fill:#951a2d"
         inkscape:connector-curvature="0"
         d="M 396.7,378.5 V 214.3 c 3.4,2.1 5.1,2.7 6.2,2.7 0.2,0 0.4,0 0.6,0 6,-0.9 21.2,-13.9 25.8,-22.2 1.7,-3.1 2.1,-5.7 1.2,-7.8 -0.5,-1.2 -1.3,-2.9 -26.4,-22.6 -10.6,-8.2 -23.4,-18.1 -36.8,-28.1 0.1,-4.8 0.2,-18.4 0,-32.2 -0.4,-35.9 -2.5,-38 -4,-39.5 -1.2,-1.2 -3.8,-3.8 -26.5,-3.2 -8.5,0.2 -21.9,1.1 -25.2,2.3 -1.9,0.7 -6,2.3 -5.5,28.1 -4.2,-3 -8.4,-5.9 -12.4,-8.6 -27.3,-18.6 -30.5,-18.6 -32.2,-18.6 -1.6,0 -5,0 -31.7,17 -15.5,9.9 -35.1,23 -55.1,37.1 C 154,133.2 135,147.2 121.3,157.9 96.2,177.6 95.7,181 95.4,183 c -0.8,5.4 3.8,11.6 6.7,14.9 5.4,6.2 14.7,13.5 23.2,13.5 0.3,0 0.7,0 1,0 0.8,-0.1 1.7,-0.3 2.9,-0.8 v 170.1 c -10.2,0.2 -16.3,0.4 -16.6,0.4 -2.9,0 -7,1.1 -10.3,6.4 -5.3,8.5 -5.4,23.6 -2,30.4 1.3,2.6 2.5,5.1 61.7,6.8 31.4,0.9 74.3,1.4 120.8,1.4 0,0 0,0 0,0 36.3,0 72.3,-0.3 98.8,-0.9 45.6,-1 46.1,-1.9 47.4,-4.2 2.9,-5.2 5.6,-29.8 -0.1,-38.3 -1.1,-1.7 -2.3,-3.4 -32.2,-4.2 z M 314.8,70.3 c 6.6,-1.5 37.7,-2.8 43.2,-0.6 1.7,5.3 2.4,33.7 2.1,61.4 -3.5,-2.6 -6.9,-5.2 -10.4,-7.7 C 339.6,116 326.6,106.4 313.5,97.1 313,86 313.4,73.6 314.8,70.3 Z m -189,133.9 c -0.2,0 -0.3,0 -0.5,0 -4.9,0 -12.2,-4.5 -17.8,-11 -3.8,-4.3 -5,-7.6 -5,-9 2.4,-4.7 29.4,-26.7 76.9,-60.1 44.3,-31.1 76.9,-51.2 82.1,-52.3 3.5,0.9 18.9,10.5 46.6,30.1 0,0 0,0 0,0 10.5,7.5 22.8,16.4 36.9,26.8 40.6,30 74.1,56.2 78.7,61 -1,4.6 -15.8,18.2 -20.7,19.9 -1.4,-0.6 -4.1,-2.4 -7.8,-4.9 -0.1,-0.1 -0.2,-0.1 -0.3,-0.2 C 383.9,197 364.6,182.8 347,169.8 289.1,127.2 267.4,112 261.5,112 c -5.8,0 -25.9,14.3 -70.2,46.9 -21.7,16 -47.8,35.1 -59.7,42.3 -0.4,0.2 -0.8,0.4 -1.1,0.7 -2.2,1.4 -3.8,2.2 -4.7,2.3 z m 175.5,82.4 c -0.3,-3.2 -2.9,-6.7 -19.3,-9.2 -9.8,-1.4 -21.6,-2 -31.7,-1.5 -17.2,0.9 -25.5,4.5 -25.5,11 v 92 c -35.5,0.5 -67.8,1.1 -88.5,1.6 V 206.8 c 10.7,-6.5 29.4,-20 59.2,-41.9 26.7,-19.7 59.9,-44.1 66,-45.4 7,1.7 51.6,34.5 81.3,56.3 23.9,17.6 38.1,27.9 46.7,33.8 v 168.7 c -12.1,-0.3 -28,-0.4 -49.1,-0.4 -12.4,0 -25.5,0.1 -39,0.2 0.2,-17.6 0.7,-84.2 -0.1,-91.5 z m -7.1,91.5 c -20.6,0.2 -41.9,0.4 -62.2,0.7 v -91.7 c 0.3,-0.3 2.2,-2.2 10.9,-3.3 18.8,-2.5 46.9,0.9 51.4,4.2 0.5,8.5 0.2,60.1 -0.1,90.1 z m 129.1,38.2 c -9.4,1.3 -63.3,2.7 -140.5,2.7 -95.3,0 -166.9,-2.1 -176.4,-5.2 -2.1,-5.5 -1.6,-16.8 2,-22.6 1.9,-3 3.6,-3 4.3,-3 0.3,0 7.1,-0.2 18.5,-0.4 0.5,0.2 1,0.4 1.6,0.4 0.6,0 1.2,-0.2 1.7,-0.5 20.6,-0.4 53.9,-1.1 90.6,-1.6 0.5,1.3 1.8,2.2 3.3,2.2 1.5,0 2.8,-1 3.3,-2.3 21,-0.3 43,-0.6 64.3,-0.7 0.5,0.3 1.1,0.5 1.7,0.5 0,0 0,0 0,0 0.6,0 1.2,-0.2 1.8,-0.5 14.1,-0.1 27.9,-0.2 40.9,-0.2 21.4,0 37.3,0.2 49.2,0.4 0.4,1.5 1.8,2.7 3.4,2.7 1.6,0 2.9,-1 3.4,-2.5 18.8,0.5 25,1.3 27,1.8 3.1,6.1 1.6,23.4 -0.1,28.8 z"
         id="path19-4-1-6-7-0" />
      <path
         style="fill:#8a1527"
         inkscape:connector-curvature="0"
         d="m 200.8,219.1 c -5.8,-0.6 -13,-0.9 -19.8,-0.9 -6,0 -11.2,0.3 -15,0.8 -4.5,0.6 -8.9,1.6 -9.9,5 -1.9,6.4 -1.9,46.4 0,52.2 1,2.9 4.4,4.4 12.2,5.5 5.3,0.8 12.2,1.2 18.9,1.2 0,0 0,0 0,0 24,0 25.8,-4.8 26.5,-6.6 2.7,-7.2 2,-48.5 -0.2,-52.9 -0.9,-2.1 -3.1,-3.3 -12.7,-4.3 z m 6.4,54.2 c -1.6,1 -8,2.3 -19.9,2.3 -12.4,0 -21.8,-1.4 -24.4,-2.6 -1.1,-6.4 -1.4,-38.5 0,-46.2 1.8,-0.6 7.1,-1.5 18.2,-1.5 12.4,0 22.9,1.1 26.3,2 1.1,7.4 1.4,39.9 -0.2,46 z"
         id="path21-7-4-6-5-2" />
      <path
         style="fill:#8a1527"
         inkscape:connector-curvature="0"
         d="m 334.6,282.8 c 6.7,0 13.6,-0.4 18.9,-1.2 7.8,-1.1 11.2,-2.7 12.2,-5.5 1.9,-5.8 1.9,-45.7 0,-52.2 -1,-3.4 -5.3,-4.4 -9.9,-5 -3.8,-0.5 -9,-0.8 -15,-0.8 -6.8,0 -14,0.3 -19.8,0.9 -9.6,1 -11.8,2.1 -12.8,4.2 -2.2,4.3 -2.8,45.7 -0.2,52.9 0.8,1.9 2.6,6.7 26.6,6.7 z m -20.1,-55.5 c 3.4,-0.9 13.9,-2 26.3,-2 11.1,0 16.4,0.9 18.2,1.5 1.4,7.7 1.1,39.8 0,46.2 -2.6,1.1 -12,2.6 -24.4,2.6 -11.9,0 -18.3,-1.4 -19.9,-2.3 -1.7,-6.1 -1.4,-38.6 -0.2,-46 z"
         id="path23-3-0-6-5-3" />
    </g>
    <g
       transform="matrix(0.0223695,0,0,0.0223695,48.389202,45.092856)"
       id="g67-8-60-0-3-7">
      <path
         style="fill:#7bc9a3"
         inkscape:connector-curvature="0"
         d="m 1220,111.4 c 6.9,0.3 13,0.6 18.3,0.8 -0.6,-6.6 -2.4,-26 -3,-32.2 -2.7,-0.8 -9.9,-1.9 -19,-2 -12.1,-0.2 -18.2,1.4 -19.3,2.4 -2.2,2.8 -2.9,17.2 -2.4,30.1 9,0.4 17.5,0.6 25.4,0.9 z"
         id="path27-4-7-6-9-5" />
      <path
         style="fill:#7bc9a3"
         inkscape:connector-curvature="0"
         d="m 1274.1,419 v 0 c 4.6,0 6.7,-5.7 7.5,-9.1 2.7,-10.7 -0.1,-22 -2.1,-23.3 H 976 c -3.4,0.1 -7.5,9 -7.4,19.4 0.1,5.9 1.7,12.7 6.1,12.7 0.2,0 0.3,0 0.5,0 1,-0.1 4.2,-0.4 64.5,-0.4 86.1,0 228.5,0.6 234.4,0.7 z"
         id="path29-7-8-04-5-9" />
      <path
         style="fill:#ffe6cb"
         inkscape:connector-curvature="0"
         d="m 1253.5,227.8 c -8.4,-0.3 -17.1,-1 -19.5,-1.9 -1.5,-0.6 -8,-4.8 -27.6,-17.6 -26.6,-17.3 -75.9,-49.4 -83.1,-51.5 -4.7,1.3 -25.6,17.3 -42.4,30.3 -34.6,26.6 -51.6,39.1 -58.5,39.1 h -18.2 v 78.3 c 5.7,0 17.4,-0.1 29,-0.2 9.5,0 17,-0.1 22.5,0 2.6,0 4.9,0 6.6,0.1 0.2,-35.6 0.9,-78 3.4,-83.3 1.2,-2.5 4,-4.9 24.5,-6.1 15.8,-0.9 39.1,-0.8 59.2,0.4 36.1,2 38.2,5.4 39.3,7.2 1,1.7 3.2,5.1 3.3,65.3 0,5.6 0,11.2 0,16.6 h 30.5 v 0 h 30.9 v -76.7 z m -200.3,33.1 c -0.2,19.7 -2.8,22.5 -5.5,23.6 -3.4,1.4 -9.8,1.5 -11.6,1.5 -6.5,0 -17.7,-0.9 -19.8,-7.1 -1.2,-3.5 -2,-13.8 -2.2,-21.8 -0.5,-19 2.2,-20.4 4,-21.3 3.2,-1.6 13.8,-2.3 20,-2.3 9.6,0 13.5,1.3 14.2,4.8 0.5,2.6 1,13.2 0.9,22.6 z m 189,-3.7 c -0.2,7.9 -1.1,18.2 -2.2,21.8 -2.1,6.2 -13.3,7.1 -19.8,7.1 0,0 0,0 0,0 -1.9,0 -8.3,-0.1 -11.6,-1.5 -2.7,-1.1 -5.3,-3.9 -5.5,-23.6 -0.1,-9.4 0.5,-20 1,-22.5 0.7,-3.5 4.6,-4.8 14.2,-4.8 6.2,0 16.8,0.7 20,2.3 1.7,0.8 4.4,2.1 3.9,21.2 z"
         id="path31-1-7-5-4-2" />
      <path
         style="fill:#7bc9a3"
         inkscape:connector-curvature="0"
         d="m 1076.6,181.4 c 30,-23.1 41.8,-31.8 46.8,-31.8 0.2,0 0.3,0 0.5,0 5.5,0.5 33.5,18.2 86.5,52.7 12.6,8.2 24.6,16 26.4,16.9 2,0.6 14.2,1.6 26.6,1.6 8.7,0 12.5,-0.5 14.1,-0.8 0.5,-5.2 0.5,-24.4 -0.9,-48.2 -1.9,-33.2 -4.5,-46.2 -5.9,-49.1 -5.2,-1.9 -34.9,-3.9 -79,-5.1 -0.1,0 -0.2,0 -0.3,0 -0.3,0 -0.6,0 -0.9,-0.1 -23,-0.6 -49.8,-0.9 -79.1,-0.9 -82.8,0 -126,3 -131.8,5.8 -2.1,4 -4.4,22 -4.6,48.9 -0.2,27.2 1.7,43.4 3.3,47.5 h 44.1 c 5.5,-0.1 34.8,-22.5 54.2,-37.4 z"
         id="path33-7-1-6-4-2" />
      <path
         style="fill:#7bc9a3"
         inkscape:connector-curvature="0"
         d="m 1218.2,240.7 c -3.9,0 -6.2,0.3 -7.4,0.5 -0.9,7.5 -1.2,32.2 1.1,36.9 1.3,0.4 4.2,0.8 8.3,0.8 0,0 0,0 0,0 8.1,0 12.3,-1.6 13,-2.3 1.7,-5.4 2.6,-29.3 1.1,-34.5 -2.5,-0.6 -9.4,-1.4 -16.1,-1.4 z"
         id="path35-1-8-04-1-8" />
      <path
         style="fill:#ffe6cb"
         inkscape:connector-curvature="0"
         d="m 1182.8,226.6 c -3.7,-1.7 -22.5,-4.3 -55.3,-5 -31.1,-0.7 -51.3,1 -55.4,2.9 -2.2,8.6 -2.7,74.9 -2.5,118 h 27.9 c 0,-5.1 0,-14.9 0.3,-25 0.8,-30.4 3,-33.2 4.2,-34.7 4.8,-6.1 27.1,-5.3 31.6,-5.1 16.8,0.9 18.9,4.1 19.7,5.4 2.9,4.7 3.5,37.7 3.6,59.4 h 28 c 0.3,-42.2 0.4,-107.2 -2.1,-115.9 z m -35.2,30.6 h -42.3 c -2,0 -3.6,-1.6 -3.6,-3.6 0,-2 1.6,-3.6 3.6,-3.6 h 42.3 c 2,0 3.6,1.6 3.6,3.6 0,2 -1.6,3.6 -3.6,3.6 z"
         id="path37-5-60-06-2-9" />
      <path
         style="fill:#ffe6cb"
         inkscape:connector-curvature="0"
         d="m 1004.2,311.6 v 31 h 25.8 v -31.2 c -8.7,0.1 -17.9,0.1 -25.8,0.2 z"
         id="path39-0-9-1-1-7" />
      <path
         style="fill:#ffe6cb"
         d="m 1253.5,349.7 h -30.6 -0.1 -34.6 -0.1 -15.2 l 3.9,29.8 h 76.7 z"
         id="polygon41-1-8-8-0-3" />
      <path
         style="fill:#ffe6cb"
         inkscape:connector-curvature="0"
         d="m 1037.2,311.4 v 31.2 h 25.2 c 0,-7.8 -0.1,-18.8 0,-31.1 -4.7,-0.2 -14.3,-0.2 -25.2,-0.1 z"
         id="path43-9-7-2-5-6" />
      <path
         style="fill:#ffe6cb"
         d="m 1082.6,349.7 h -16.6 -61.8 v 29.8 h 75.5 z"
         id="polygon45-4-0-4-2-1" />
      <path
         style="fill:#7bc9a3"
         d="m 1169.6,379.5 -1.5,-11.3 H 1088 l -1.1,11.3 z"
         id="polygon47-72-1-8-2-2" />
      <path
         style="fill:#7bc9a3"
         d="m 1167.1,361 -1.4,-11.3 h -64.6 -11.3 l -1.1,11.3 z"
         id="polygon49-8-9-47-3-9" />
      <path
         style="fill:#7bc9a3"
         inkscape:connector-curvature="0"
         d="m 1147.1,287.1 c -1.8,-1 -8.9,-2.3 -19.8,-2.4 -0.1,0 -0.3,0 -0.4,0 -12.1,0 -18.1,1.6 -19.4,2.5 -2.1,4.1 -3.1,30.6 -2.9,55.3 h 44.9 c -0.1,-24.5 -1,-50.7 -2.4,-55.4 z"
         id="path51-0-33-93-7-3" />
      <path
         style="fill:#ffe6cb"
         d="m 1226.2,311.6 0.2,31 h 27.1 v -31 z"
         id="polygon53-6-6-9-6-1" />
      <path
         style="fill:#ffe6cb"
         inkscape:connector-curvature="0"
         d="m 1192.1,311.6 c -0.1,13.8 -0.2,25.3 -0.3,30.9 h 27.4 l -0.2,-30.9 z"
         id="path55-4-2-0-8-9" />
      <path
         style="fill:#7bc9a3"
         inkscape:connector-curvature="0"
         d="m 1038.1,240.7 c -6.7,0 -13.6,0.8 -16.1,1.4 -1.6,5.2 -0.6,29.1 1.1,34.4 0.8,0.8 4.9,2.3 13,2.3 4.1,0 7,-0.4 8.3,-0.8 2.2,-4.7 1.9,-29.4 1.1,-36.9 -1.2,-0.1 -3.6,-0.4 -7.4,-0.4 z"
         id="path57-1-6-92-4-4" />
      <path
         style="fill:#40735e"
         inkscape:connector-curvature="0"
         d="m 1274,426.1 h 0.2 c 9.6,0 15.7,-10.1 15.7,-25.7 0,-9.7 -2.7,-21 -10.2,-21 h -19 V 228 c 0.9,0 1.8,0 2.7,0 17.6,0 19,-1.9 20,-3.3 0.8,-1.1 1.6,-2.2 1.5,-18.4 -0.1,-9.5 -0.5,-21.6 -1.1,-33.3 -1.8,-32.3 -4.4,-50.8 -7.7,-55.1 -1.2,-1.5 -2.7,-3.4 -30.6,-5.2 -0.5,-5.7 -3,-31.6 -3.2,-34.8 -0.3,-3.2 -3.7,-4.2 -5,-4.6 -7.3,-2.2 -39.7,-4.9 -45.8,2.7 -4.6,5.7 -4.4,24.7 -4,34.5 -23.6,-0.6 -50,-0.9 -76,-0.9 -35.6,0 -68.1,0.6 -91.4,1.7 -42.6,1.9 -44.6,4.8 -46,6.9 -5.2,7.5 -5.9,41.8 -6.1,52.1 -0.1,7.3 -0.2,43.9 4.4,52.8 1.5,2.8 3.5,3.2 4.6,3.2 h 20.2 V 379.6 H 976 c -9.3,0.2 -14.6,13.7 -14.5,26.6 0.1,12.2 5.2,19.8 13.3,19.8 0.4,0 0.8,0 1.2,-0.1 1.8,-0.2 14.3,-0.4 63.9,-0.4 85.9,0 228.2,0.6 234.1,0.6 z M 1197,80.5 c 1.1,-1 7.2,-2.6 19.3,-2.4 9.1,0.1 16.3,1.2 19,2 0.6,6.2 2.4,25.6 3,32.2 -5.3,-0.3 -11.3,-0.6 -18.3,-0.8 -7.9,-0.3 -16.4,-0.6 -25.4,-0.8 -0.6,-13.1 0.1,-27.5 2.4,-30.2 z M 978.3,219 c -1.6,-4.2 -3.5,-20.4 -3.3,-47.5 0.2,-26.9 2.5,-44.9 4.6,-48.9 5.8,-2.8 49,-5.8 131.8,-5.8 29.3,0 56.1,0.4 79.1,0.9 0.3,0.1 0.6,0.1 0.9,0.1 0.1,0 0.2,0 0.3,0 44.2,1.1 73.8,3.1 79,5.1 1.4,2.9 4,15.9 5.9,49.1 1.3,23.9 1.4,43 0.9,48.2 -1.5,0.3 -5.4,0.8 -14.1,0.8 -12.4,0 -24.7,-1 -26.6,-1.6 -1.8,-0.9 -13.7,-8.7 -26.4,-16.9 -53,-34.5 -81,-52.2 -86.5,-52.7 -0.2,0 -0.3,0 -0.5,0 -5,0 -16.8,8.7 -46.8,31.8 -19.4,14.9 -48.6,37.4 -54.1,37.6 h -44.2 z m 187.4,130.7 1.5,11.3 h -78.5 l 1.1,-11.3 h 11.3 v 0 z m -58.2,-62.4 c 1.2,-0.9 7.2,-2.5 19.4,-2.5 0.1,0 0.3,0 0.4,0 10.8,0 18,1.4 19.8,2.4 1.5,4.7 2.4,30.8 2.4,55.4 h -44.9 c -0.1,-24.8 0.9,-51.2 2.9,-55.3 z m 60.6,80.9 1.5,11.3 h -82.7 l 1.1,-11.3 z m -11.4,-25.6 c -0.1,-21.7 -0.6,-54.7 -3.6,-59.4 -0.8,-1.2 -2.8,-4.5 -19.7,-5.4 -4.4,-0.2 -26.8,-1 -31.6,5.1 -1.2,1.5 -3.4,4.3 -4.2,34.7 -0.3,10.1 -0.3,19.9 -0.3,25 h -27.9 c -0.2,-43.1 0.4,-109.4 2.5,-118 4.1,-1.9 24.3,-3.6 55.4,-2.9 32.8,0.7 51.6,3.2 55.3,5 2.5,8.7 2.5,73.7 1.9,115.9 z m -90.7,7.1 v 0 h 16.6 l -2.9,29.7 h -75.4 v -29.7 z m -61.8,-7.1 v -31 c 7.9,-0.1 17,-0.1 25.8,-0.2 v 31.2 z m 58.2,0 h -25.2 v -31.2 c 10.9,0 20.4,0 25.1,0 0,12.4 0,23.4 0.1,31.2 z m 125.7,7.1 v 0 h 34.7 v 0 h 30.7 v 29.7 h -76.8 l -3.9,-29.7 z m 3.7,-7.1 c 0.1,-5.6 0.2,-17.2 0.3,-30.9 h 27 l 0.2,30.9 z m 34.6,0 -0.2,-30.9 h 27.3 v 30.9 z m -3.8,-38.1 v 0 h -30.5 c 0,-5.4 0,-11 0,-16.6 -0.2,-60.2 -2.3,-63.6 -3.3,-65.3 -1.1,-1.8 -3.2,-5.2 -39.3,-7.2 -20.1,-1.1 -43.4,-1.3 -59.2,-0.4 -20.5,1.2 -23.3,3.5 -24.5,6.1 -2.5,5.2 -3.2,47.7 -3.4,83.3 -1.7,0 -4,-0.1 -6.6,-0.1 -5.4,0 -13,0 -22.5,0 -11.6,0.1 -23.3,0.1 -29,0.2 v -78.3 h 18.2 c 6.9,0 23.9,-12.5 58.5,-39.1 16.8,-12.9 37.7,-29 42.4,-30.3 7.2,2.1 56.5,34.2 83.1,51.5 19.6,12.8 26.1,17 27.6,17.6 2.4,1 11.1,1.6 19.5,1.9 v 76.7 z M 975.3,418.7 c -0.2,0 -0.4,0 -0.5,0 -4.4,0 -6.1,-6.9 -6.1,-12.7 -0.1,-10.3 4,-19.3 7.4,-19.4 h 303.5 c 2,1.3 4.8,12.6 2.1,23.3 -0.9,3.4 -3,9.1 -7.5,9.1 h -0.1 c -5.9,-0.1 -148.3,-0.6 -234.3,-0.6 -60.3,-0.1 -63.5,0.2 -64.5,0.3 z"
         id="path59-3-5-6-1-7" />
      <path
         style="fill:#40735e"
         inkscape:connector-curvature="0"
         d="m 1147.6,250 h -42.3 c -2,0 -3.6,1.6 -3.6,3.6 0,2 1.6,3.6 3.6,3.6 h 42.3 c 2,0 3.6,-1.6 3.6,-3.6 0,-2 -1.6,-3.6 -3.6,-3.6 z"
         id="path61-0-0-8-6-8" />
      <path
         style="fill:#40735e"
         inkscape:connector-curvature="0"
         d="m 1238.2,235.9 c -3.2,-1.6 -13.8,-2.3 -20,-2.3 -9.6,0 -13.5,1.3 -14.2,4.8 -0.5,2.6 -1.1,13.2 -1,22.5 0.2,19.7 2.8,22.5 5.5,23.6 3.4,1.4 9.8,1.5 11.6,1.5 0,0 0,0 0,0 6.5,0 17.7,-0.9 19.8,-7.1 1.2,-3.5 2,-13.8 2.2,-21.8 0.6,-19 -2.1,-20.3 -3.9,-21.2 z m -5,40.6 c -0.8,0.8 -4.9,2.3 -13,2.3 0,0 0,0 0,0 -4.1,0 -7,-0.4 -8.3,-0.8 -2.2,-4.7 -1.9,-29.4 -1.1,-36.9 1.2,-0.2 3.5,-0.5 7.4,-0.5 6.7,0 13.6,0.8 16.1,1.4 1.5,5.2 0.6,29.1 -1.1,34.5 z"
         id="path63-7-7-17-0-4" />
      <path
         style="fill:#40735e"
         inkscape:connector-curvature="0"
         d="m 1038.1,233.5 c -6.2,0 -16.8,0.7 -20,2.3 -1.8,0.9 -4.5,2.3 -4,21.3 0.2,7.9 1.1,18.2 2.2,21.8 2.1,6.2 13.3,7.1 19.8,7.1 1.9,0 8.3,-0.1 11.6,-1.5 2.7,-1.1 5.3,-3.9 5.5,-23.6 0.1,-9.4 -0.5,-20 -1,-22.5 -0.7,-3.6 -4.5,-4.9 -14.1,-4.9 z m 6.3,44.6 c -1.3,0.4 -4.2,0.8 -8.3,0.8 -8.1,0 -12.3,-1.6 -13,-2.3 -1.7,-5.4 -2.6,-29.3 -1.1,-34.4 2.5,-0.6 9.4,-1.4 16.1,-1.4 3.9,0 6.2,0.3 7.4,0.5 0.8,7.4 1.1,32.1 -1.1,36.8 z"
         id="path65-0-0-0-6-5" />
    </g>
    <g
       transform="matrix(0.0223695,0,0,0.0223695,68.355101,44.922126)"
       id="g87-3-8-95-1-0">
      <path
         style="fill:#fec143"
         inkscape:connector-curvature="0"
         d="m 657.3,160.4 c 22.4,-40 24.7,-40 27.6,-40 3.3,0 8.8,1.8 19,17.8 2.6,4.1 5,8.2 6.6,11.3 0.8,-1.1 1.5,-2.1 2.2,-3.1 3.4,-4.6 6.1,-8.1 8.2,-10.7 -4.9,-6.5 -19.3,-25.1 -28.4,-35.3 -3,-3.4 -7.6,-7.2 -12.1,-6.8 -4.4,0.5 -7.9,4.9 -10,8.6 l -0.4,0.7 c -62.8,108.4 -136.9,237 -139.3,242.5 -0.2,0.5 0.2,2.3 2.5,5 3.7,4.2 10.4,8.1 14.8,7.3 6.3,-5.8 38.2,-65.6 64,-113.8 16,-29.8 32.4,-60.6 45.3,-83.5 z"
         id="path69-0-5-8-1-3" />
      <path
         style="fill:#fec143"
         inkscape:connector-curvature="0"
         d="m 845.5,414.6 c 1.2,-8.4 -0.5,-16.5 -2.1,-18.6 -10.2,-1.4 -107.3,-3.8 -192.9,-3.8 -85.1,0 -100.5,2.4 -103.2,3.3 -1.7,2.5 -3.3,10.1 -2.7,16.1 0.3,3 1,4.3 1.4,4.7 6.8,0.9 89.1,2.7 169.3,2.7 103.9,0 125.7,-3 130.2,-4.4 z"
         id="path71-5-1-9-4-6" />
      <path
         style="fill:#fec143"
         inkscape:connector-curvature="0"
         d="m 640.1,278.8 c 3.7,4.3 11.5,11.2 15.4,11.2 0.4,0 0.6,-0.1 0.7,-0.1 2.9,-2.7 17.8,-26.9 31,-48.3 35.8,-58 41.5,-65.9 45.4,-66.7 0.2,0 0.5,-0.1 0.8,-0.1 4.2,0 7.4,3.5 58.6,89.3 23.2,38.9 51.9,87 58.4,93.3 4.9,-0.7 10.4,-3.2 11.6,-5.4 0.2,-0.4 0.2,-0.5 0,-0.8 -1.3,-2.7 -31,-53.1 -63.9,-107.8 -49.6,-82.4 -63.5,-102.9 -67.4,-107.8 -0.6,0.5 -1.3,1.3 -2.1,2.2 -0.2,0.3 -0.4,0.5 -0.6,0.7 -7.6,8.8 -23.7,31.6 -45.6,66.4 -24.4,38.6 -40.4,67.5 -42.3,73.9 z"
         id="path73-73-8-3-1-1" />
      <path
         style="fill:#fec143"
         inkscape:connector-curvature="0"
         d="m 603.2,326.1 c -2.5,4.7 -0.5,25.3 2.1,28.7 2.2,0.8 12.3,1.9 24.7,1.9 0,0 0,0 0,0 9.8,0 15.2,-0.7 17,-1.3 1.6,-4.6 2,-24.8 0,-29.1 -2.1,-1.2 -11.4,-2.7 -23.9,-2.7 -12.2,0 -18.6,1.5 -19.9,2.5 z"
         id="path75-2-8-94-0-0" />
      <path
         style="fill:#fec143"
         inkscape:connector-curvature="0"
         d="m 750.7,296.8 c -14.4,-0.4 -25.7,2.3 -27.4,4.3 -1.6,6.2 -0.8,53.7 0.1,84.5 14.8,0.2 29.6,0.4 43.8,0.7 0.3,-13 1.7,-76.7 1.2,-85.9 -0.9,-1.1 -6.1,-3.3 -17.7,-3.6 z"
         id="path77-1-7-8-5-6" />
      <path
         style="fill:#ffe6cb"
         inkscape:connector-curvature="0"
         d="m 685.1,187.2 c 7.6,-11.8 14.7,-22.4 20.8,-31.2 -7.4,-14.4 -16.3,-26.7 -20.3,-28.3 -7.4,7.6 -40.5,69.5 -67.3,119.5 -15.1,28.2 -30.7,57.4 -42.7,79 -0.7,1.2 -1.3,2.4 -2,3.5 v 56.4 c 15.8,-0.6 39.9,-1 76.9,-1 8.4,0 17.2,0 26.2,0.1 V 272 c -9.5,15.2 -14.3,22.3 -16.4,23.7 -1.4,1 -3,1.5 -4.8,1.5 -9.6,0 -21.7,-14.7 -21.8,-14.9 -1.7,-2.1 -1.1,-4.8 2.6,-12.6 7.5,-15.6 27.6,-49.5 48.8,-82.5 z m -32.3,135 c 3.8,6 3.2,32.3 0,37.5 -1,1.6 -2.6,4.2 -22.9,4.2 0,0 0,0 0,0 -1,0 -24,0 -28.7,-3.1 -3.8,-2.5 -5.4,-11.3 -6,-18.4 -0.3,-3.5 -1.1,-15.1 1.9,-20.1 0.9,-1.4 3.5,-5.9 25.9,-5.9 7.9,0 26.5,0.6 29.8,5.8 z"
         id="path79-0-8-5-7-3" />
      <path
         style="fill:#ffe6cb"
         inkscape:connector-curvature="0"
         d="m 779.2,386.5 c 18.2,0.4 31.4,0.8 41.1,1.1 v -62.5 c -10.3,-16.8 -22.6,-37.4 -34.6,-57.4 -20.3,-33.9 -45.1,-75.4 -52.5,-84.6 -6.5,7.7 -25.7,38.9 -40,62.2 -3.4,5.6 -6.6,10.6 -9.4,15.2 v 124.8 c 10.6,0.1 21.5,0.2 32.4,0.3 -0.5,-16.5 -2.1,-78.5 0.2,-86.5 2.8,-9.9 31.4,-10 41.4,-8.9 11.4,1.2 17.3,4.5 17.6,9.7 0.6,8.9 -0.9,73.3 -1.2,86.7 1.8,-0.1 3.4,-0.1 5,-0.1 z"
         id="path81-8-6-65-7-2" />
      <path
         style="fill:#b35621"
         inkscape:connector-curvature="0"
         d="m 807.7,424.9 c 12.9,-0.5 23,-1.1 29.9,-1.8 10.8,-1.1 14.1,-2.4 14.7,-5.7 1.9,-10.1 0.3,-23.6 -5,-27.5 -0.8,-0.5 -1.6,-1.2 -19.8,-1.9 v -51.3 c 17.6,28 19.5,28 22,28 v 0 c 0.1,0 0.2,0 0.3,0 5.4,-0.5 15.1,-3.3 18.3,-9.1 1.4,-2.4 1.4,-5.1 0.2,-7.5 -1.6,-3.2 -33.6,-57.5 -65.4,-110.3 C 738.6,130.8 734.8,128.9 733,128 c -0.6,-0.3 -1.2,-0.4 -1.9,-0.4 -1.2,0 -2.6,0.3 -5.2,2.7 -5.6,-7.3 -19,-24.7 -28,-34.8 -6,-6.7 -12.1,-9.7 -18.2,-9.1 -5.9,0.6 -11.2,4.8 -15.5,12.1 l -0.4,0.7 C 631.6,154.7 526.5,336.4 524,342.6 c -1.4,3.6 -0.1,8 3.8,12.4 4.6,5.3 12.2,9.9 19,9.9 1.2,0 2.3,-0.1 3.4,-0.4 1.9,-0.5 3.8,-1 16.2,-22.3 v 44.2 c -21.6,1.1 -23.1,2.7 -24.1,3.8 -4.6,5 -6.1,18.6 -4.1,25.9 1.3,4.7 3.8,6.4 5.7,6.9 4.5,1.3 100.5,3 171.3,3 38.8,0.1 69.9,-0.3 92.5,-1.1 z M 728,138.5 c 0.2,-0.2 0.4,-0.4 0.6,-0.7 0.8,-0.9 1.5,-1.7 2.1,-2.2 3.9,5 17.8,25.4 67.4,107.8 32.9,54.7 62.5,105.1 63.9,107.8 0.2,0.3 0.2,0.5 0,0.8 -1.2,2.2 -6.7,4.7 -11.6,5.4 -6.5,-6.4 -35.2,-54.4 -58.4,-93.3 -51.2,-85.7 -54.4,-89.3 -58.6,-89.3 -0.2,0 -0.5,0 -0.8,0.1 -3.9,0.8 -9.6,8.7 -45.4,66.7 -13.2,21.4 -28.1,45.6 -31,48.3 -0.1,0.1 -0.3,0.1 -0.7,0.1 -3.9,0 -11.6,-6.9 -15.4,-11.2 1.9,-6.4 17.9,-35.3 42.3,-73.9 21.9,-34.8 38,-57.7 45.6,-66.4 z m 47.5,161.3 c -0.3,-5.2 -6.2,-8.4 -17.6,-9.7 -10.1,-1.1 -38.6,-1 -41.4,8.9 -2.3,8 -0.7,70 -0.2,86.5 -10.9,-0.1 -21.8,-0.2 -32.4,-0.3 V 260.5 c 2.8,-4.5 5.9,-9.6 9.4,-15.2 14.4,-23.3 33.6,-54.5 40,-62.2 7.4,9.1 32.2,50.7 52.5,84.6 11.9,20 24.2,40.6 34.6,57.4 v 62.5 c -9.7,-0.3 -22.9,-0.7 -41.1,-1.1 -1.6,0 -3.2,-0.1 -4.8,-0.1 0.2,-13.3 1.6,-77.8 1,-86.6 z m -8.3,86.5 c -14.2,-0.3 -29,-0.5 -43.8,-0.7 -0.9,-30.8 -1.6,-78.3 -0.1,-84.5 1.7,-2.1 13,-4.7 27.4,-4.3 11.6,0.3 16.8,2.5 17.7,3.6 0.5,9.2 -0.9,72.9 -1.2,85.9 z M 633.7,282.2 c 0.1,0.1 12.2,14.9 21.8,14.9 1.8,0 3.4,-0.5 4.8,-1.5 2.1,-1.4 6.9,-8.5 16.4,-23.7 v 113.2 c -9,0 -17.8,-0.1 -26.2,-0.1 -36.9,0 -61.1,0.4 -76.9,1 v -56.4 c 0.6,-1.1 1.3,-2.3 2,-3.5 12,-21.6 27.6,-50.7 42.7,-79 26.8,-50 59.9,-112 67.3,-119.5 4,1.6 12.9,14 20.3,28.3 -6.1,8.8 -13.2,19.4 -20.8,31.2 -21.3,33 -41.4,66.9 -48.9,82.5 -3.7,7.8 -4.2,10.5 -2.5,12.6 z M 548,357.7 c -4.4,0.7 -11.1,-3.1 -14.8,-7.3 -2.4,-2.7 -2.7,-4.6 -2.5,-5 2.4,-5.5 76.5,-134.1 139.3,-242.5 l 0.4,-0.7 c 2.1,-3.7 5.6,-8.1 10,-8.6 4.5,-0.5 9.1,3.4 12.1,6.8 9.2,10.2 23.5,28.9 28.4,35.3 -2.2,2.6 -4.9,6.1 -8.2,10.7 -0.7,1 -1.5,2 -2.2,3.1 -1.7,-3.1 -4,-7.2 -6.6,-11.3 -10.2,-16 -15.8,-17.8 -19,-17.8 -2.9,0 -5.2,0 -27.6,40 -12.8,22.9 -29.3,53.7 -45.2,83.5 -25.8,48.2 -57.8,108 -64.1,113.8 z m -3.4,53.9 c -0.6,-6 0.9,-13.6 2.7,-16.1 2.7,-0.9 18.1,-3.3 103.2,-3.3 85.6,0 182.7,2.4 192.9,3.8 1.6,2.1 3.3,10.2 2.1,18.6 -4.5,1.4 -26.3,4.4 -130.2,4.4 -80.2,0 -162.5,-1.8 -169.3,-2.7 -0.3,-0.3 -1,-1.6 -1.4,-4.7 z"
         id="path83-1-8-7-0-0" />
      <path
         style="fill:#b35621"
         inkscape:connector-curvature="0"
         d="m 597.1,322.3 c -2.9,5 -2.2,16.7 -1.9,20.1 0.6,7 2.2,15.9 6,18.4 4.7,3.1 27.7,3.1 28.7,3.1 0,0 0,0 0,0 20.3,0 21.9,-2.6 22.9,-4.2 3.2,-5.2 3.8,-31.4 0,-37.5 -3.3,-5.2 -21.9,-5.8 -29.8,-5.8 -22.4,0 -25,4.4 -25.9,5.9 z m 49.8,33 c -1.8,0.6 -7.2,1.3 -17,1.3 0,0 0,0 0,0 -12.4,0 -22.5,-1.1 -24.7,-1.9 -2.5,-3.4 -4.5,-23.9 -2.1,-28.7 1.3,-1 7.7,-2.5 19.8,-2.5 12.5,0 21.8,1.6 23.9,2.7 2.1,4.3 1.7,24.5 0.1,29.1 z"
         id="path85-6-5-46-2-6" />
    </g>
    <g
       transform="matrix(0.0223695,0,0,0.0223695,109.79707,34.301536)"
       id="g121-7-6-7-1-1">
      <path
         style="fill:#6389b6"
         inkscape:connector-curvature="0"
         d="m 766.8,809.6 c 9,0 18.2,-1.3 20.6,-2 2.5,-4.3 3.8,-27 1.7,-31.5 -2.2,-0.9 -11.1,-2.1 -21.9,-2.1 -5,0 -8.1,0.3 -9.6,0.5 0,0.7 -0.1,1.6 -0.1,2.7 -0.8,17.7 -0.8,28.3 -0.2,31.5 0.8,0.3 3.4,0.9 9.5,0.9 z"
         id="path89-5-5-60-1-5" />
      <path
         style="fill:#6389b6"
         inkscape:connector-curvature="0"
         d="m 829.7,868.2 c 0,0 -0.1,0 0,0 -0.3,0 -0.5,0 -0.7,-0.1 -29.3,-2.2 -98.5,-3.8 -168.7,-3.8 -50.4,0 -82.5,0.8 -100.5,1.9 -0.1,0 -0.2,0 -0.3,0 0,0 0,0 -0.1,0 -10.7,0.6 -16.4,1.4 -18,2.1 -1.1,1 -3.1,7 -2.2,13.2 0.5,3.3 2,7.7 6.4,9.6 6.8,2.7 92.2,5.2 175.7,5.2 0,0 0,0 0,0 80.2,0 114.8,-2.3 120.8,-4.3 3.3,-8 3.5,-17.4 0.4,-22.3 -1.8,-0.5 -6.2,-1.1 -12.8,-1.5 0.1,0 0,0 0,0 z"
         id="path91-5-8-5-9-5" />
      <path
         style="fill:#6389b6"
         inkscape:connector-curvature="0"
         d="m 670.2,781.7 c -2.2,5.4 -1.5,41.7 0.6,75.4 17.6,0 35.7,0.2 53.2,0.4 0.3,-33.2 -0.1,-69.4 -1.5,-76 -2.7,-1 -12.5,-2.4 -26.1,-2.5 -16,0 -24.4,1.6 -26.2,2.7 z"
         id="path93-0-4-0-7-4" />
      <path
         style="fill:#ffe6cb"
         inkscape:connector-curvature="0"
         d="m 830.1,649.3 c -0.3,0 -0.6,0 -1,0 -16.1,0.6 -39,0.9 -66.2,0.9 -46.8,0 -103.3,-1 -147.6,-2.5 -21.5,-0.8 -39,-1.6 -52.3,-2.5 v 103.2 h 265.2 z m -187,57.1 c -2.3,5.8 -17.9,6.7 -27,6.7 0,0 0,0 0,0 -6.1,0 -10.2,-0.5 -12.1,-1.5 -1.8,-0.9 -3.8,-3.1 -5.2,-12.4 0,-0.3 -3.4,-25.4 2.1,-30.6 4.1,-3.8 23.1,-4 26.9,-4 12.7,0 16.7,1.3 16.7,5.4 0,0.4 0,1 0,2 0.3,20.8 -0.1,31.1 -1.4,34.4 z m 75.2,0 c -2.3,5.8 -17.9,6.7 -27,6.7 0,0 0,0 0,0 -6.1,0 -10.2,-0.5 -12.1,-1.5 -1.8,-0.9 -3.9,-3.1 -5.2,-12.4 0,-0.3 -3.4,-25.4 2.1,-30.6 4.1,-3.8 23.1,-4 26.9,-4 12.7,0 16.7,1.3 16.7,5.4 0,0.4 0,1 0,2 0.3,20.8 -0.1,31.1 -1.4,34.4 z m 75.1,0 c -2.3,5.8 -17.9,6.7 -27,6.7 0,0 0,0 0,0 -6.1,0 -10.2,-0.5 -12.1,-1.5 -1.8,-0.9 -3.9,-3.1 -5.2,-12.4 0,-0.3 -3.4,-25.4 2.1,-30.6 4.1,-3.8 23.1,-4 26.9,-4 12.7,0 16.7,1.3 16.7,5.4 0,0.4 0,1 0,2 0.4,20.8 0,31.1 -1.4,34.4 z"
         id="path95-2-3-7-5-7" />
      <path
         style="fill:#6389b6"
         inkscape:connector-curvature="0"
         d="m 795.5,569.5 c -5.3,-1.8 -54.6,-3.8 -110.4,-3.8 -54.1,0 -77.1,1.9 -80.4,3.6 -5.2,2.6 -21.2,15.7 -38,32.5 -18.9,18.8 -26.4,29.9 -27.3,33.7 14.6,3.8 125.8,7.7 223.5,7.7 67.9,0 85.8,-1.9 90.6,-2.8 -1.4,-4.6 -9.2,-17.6 -24.8,-36.8 -16.4,-20.5 -29.4,-32.8 -33.2,-34.1 z"
         id="path97-6-8-4-0-6" />
      <path
         style="fill:#6389b6"
         inkscape:connector-curvature="0"
         d="m 778.2,671.7 c -10.8,0 -19.7,1.2 -21.9,2.1 -2.1,4.5 -0.9,27 1.7,31.5 1,0.2 3.5,0.6 8.5,0.6 0,0 0,0 0,0 10.2,0 18.4,-1.5 20.4,-2.6 0.4,-1.8 1.1,-8.2 0.9,-31 -1.6,-0.3 -4.6,-0.6 -9.6,-0.6 z"
         id="path99-3-51-5-0-5" />
      <path
         style="fill:#6389b6"
         inkscape:connector-curvature="0"
         d="m 627.8,671.7 c -10.8,0 -19.7,1.2 -21.9,2.1 -2.1,4.5 -0.9,27 1.7,31.5 1,0.2 3.5,0.6 8.5,0.6 0,0 0,0 0,0 10.2,0 18.4,-1.5 20.4,-2.6 0.4,-1.8 1.1,-8.2 0.9,-31 -1.6,-0.3 -4.6,-0.6 -9.6,-0.6 z"
         id="path101-2-7-8-8-6" />
      <path
         style="fill:#6389b6"
         inkscape:connector-curvature="0"
         d="m 703,671.7 c -10.8,0 -19.7,1.2 -21.9,2.1 -2.1,4.5 -0.9,27 1.7,31.5 1,0.2 3.5,0.6 8.5,0.6 0,0 0,0 0,0 10.2,0 18.4,-1.5 20.4,-2.6 0.4,-1.8 1.1,-8.2 0.9,-31 -1.6,-0.3 -4.6,-0.6 -9.6,-0.6 z"
         id="path103-0-6-5-1-9" />
      <path
         style="fill:#ffe6cb"
         inkscape:connector-curvature="0"
         d="m 563.1,858.8 c 4.4,-0.2 9.5,-0.5 15.6,-0.7 20.9,-0.7 49.1,-1.1 81.6,-1.1 1.1,0 2.2,0 3.3,0 -0.4,-6.5 -1.1,-20.6 -1.6,-34.9 -1.3,-40.6 1.2,-43.5 2.7,-45.2 6.2,-7.2 44.4,-4.6 44.7,-4.5 16.7,1.2 18.2,3.5 19.1,5 0.9,1.4 2.3,3.6 2.6,44.2 0.1,15 0,29.8 0,36 18.7,0.3 36.6,0.7 52.2,1.2 19.9,0.6 33.5,1.3 42.9,1.9 l 1.9,-105.2 h -265 z m 187.2,-82 c 0.1,-2.2 0.2,-4.1 0.2,-4.6 0,-4.1 4.1,-5.4 16.7,-5.4 3.8,0 22.8,0.2 26.9,4 5.5,5.2 2.2,30.4 2.1,30.6 -1.4,9.3 -3.4,11.5 -5.2,12.4 -3.5,1.7 -15.5,3 -24.2,3 -10.1,0 -14.7,-1.4 -16.1,-4.8 -1.3,-3.2 -1.4,-12.8 -0.4,-35.2 z m -150.7,-6 c 4.1,-3.8 23.1,-4 26.9,-4 12.7,0 16.7,1.3 16.7,5.4 0,0.5 0.1,2.4 0.2,4.6 1,22.4 0.8,31.9 -0.4,35.1 -1.4,3.4 -6,4.8 -16.1,4.8 0,0 0,0 0,0 -8.7,0 -20.7,-1.2 -24.2,-3 -1.8,-0.9 -3.9,-3.1 -5.2,-12.4 -0.1,-0.1 -3.4,-25.3 2.1,-30.5 z"
         id="path105-1-2-4-7-3" />
      <path
         style="fill:#6389b6"
         inkscape:connector-curvature="0"
         d="m 626.9,809.6 c 6.2,0 8.7,-0.6 9.6,-0.9 0.6,-3.2 0.5,-13.8 -0.2,-31.5 0,-1.1 -0.1,-1.9 -0.1,-2.7 -1.6,-0.3 -4.6,-0.5 -9.6,-0.5 -10.8,0 -19.7,1.2 -21.9,2.1 -2.1,4.6 -0.9,27.2 1.7,31.5 2.3,0.7 11.5,2 20.5,2 z"
         id="path107-6-8-3-2-7" />
      <path
         style="fill:#334b67"
         inkscape:connector-curvature="0"
         d="m 797.7,562.7 c -8.2,-2.7 -70.7,-4.2 -112.6,-4.2 -34.2,0 -76.4,0.8 -83.6,4.4 -11.4,5.7 -63.6,52.8 -68.8,70.3 -0.8,2.5 -0.6,4.7 0.4,6.4 1.1,1.8 1.9,3.3 22.9,5 v 214.6 c -15.3,1.1 -17.2,2.2 -18.3,2.9 -4.3,2.7 -6.3,11.4 -5.8,18.3 0.6,8.3 4.5,14.4 10.9,17.2 8.7,3.8 109.3,5.8 178.6,5.8 0,0 0,0 0,0 34.5,0 64,-0.4 85.4,-1.3 39.3,-1.5 40.3,-3.8 41.5,-6.3 4.3,-9.4 5.5,-23.1 -0.4,-31 -0.8,-1.1 -1.7,-2.3 -14.6,-3.5 L 837.2,649 c 21.3,-1.1 22,-2.6 23.1,-4.7 1,-2 0.8,-4.5 -0.8,-8.1 -7.1,-17.3 -49.6,-69.4 -61.8,-73.5 z m 44.9,307 c 3.1,4.9 2.9,14.3 -0.4,22.3 -6,2 -40.6,4.3 -120.8,4.3 0,0 0,0 0,0 -83.5,0 -168.9,-2.5 -175.7,-5.2 -4.5,-1.9 -6,-6.3 -6.4,-9.6 -0.9,-6.2 1.1,-12.2 2.2,-13.2 1.6,-0.7 7.3,-1.4 18,-2.1 0,0 0,0 0.1,0 0.1,0 0.2,0 0.3,0 18,-1.1 50.1,-1.9 100.5,-1.9 70.2,0 139.5,1.7 168.7,3.8 0.2,0 0.4,0.1 0.6,0.1 0,0 0,0 0.1,0 0,0 0.1,0 0.1,0 6.4,0.5 10.8,1 12.7,1.5 z m -14.5,-114.1 -1.9,105.2 c -9.4,-0.7 -23,-1.3 -42.9,-1.9 -15.6,-0.5 -33.5,-0.9 -52.2,-1.2 0,-6.2 0.1,-21 0,-36 -0.3,-40.6 -1.7,-42.8 -2.6,-44.2 -0.9,-1.4 -2.4,-3.8 -19.1,-5 -0.4,0 -38.6,-2.7 -44.7,4.5 -1.5,1.7 -3.9,4.6 -2.7,45.2 0.4,14.3 1.2,28.3 1.6,34.9 -1.1,0 -2.2,0 -3.3,0 -32.5,0 -60.7,0.4 -81.6,1.1 -6.1,0.2 -11.2,0.4 -15.6,0.7 V 755.6 Z m -265,-7.2 V 645.2 c 13.3,0.9 30.8,1.8 52.3,2.5 44.2,1.6 100.8,2.5 147.6,2.5 27.2,0 50.1,-0.3 66.2,-0.9 0.3,0 0.6,0 1,0 l -1.8,99.1 z m 159.3,33.2 c 1.4,6.6 1.8,42.8 1.5,76 -17.5,-0.2 -35.5,-0.4 -53.2,-0.4 -2.1,-33.7 -2.8,-70 -0.6,-75.4 1.9,-1.1 10.3,-2.7 26.2,-2.5 13.7,0 23.4,1.3 26.1,2.3 z m 40.5,-138.4 c -97.7,0 -208.9,-3.9 -223.5,-7.7 0.9,-3.8 8.4,-14.9 27.3,-33.7 16.8,-16.8 32.8,-29.9 38,-32.5 3.3,-1.7 26.4,-3.6 80.4,-3.6 55.7,0 105.1,2 110.4,3.8 3.8,1.3 16.8,13.6 33.2,34 15.5,19.2 23.3,32.2 24.8,36.8 -4.7,1 -22.7,2.9 -90.6,2.9 z"
         id="path109-03-1-1-5-4" />
      <path
         style="fill:#334b67"
         inkscape:connector-curvature="0"
         d="m 602.7,813.8 c 3.5,1.7 15.5,3 24.2,3 0,0 0,0 0,0 10.1,0 14.7,-1.4 16.1,-4.8 1.3,-3.2 1.4,-12.7 0.4,-35.1 -0.1,-2.2 -0.2,-4.1 -0.2,-4.6 0,-4.1 -4.1,-5.4 -16.7,-5.4 -3.8,0 -22.8,0.2 -26.9,4 -5.5,5.2 -2.2,30.4 -2.1,30.6 1.3,9.2 3.4,11.4 5.2,12.3 z m 1.9,-37.8 c 2.2,-0.9 11.1,-2.1 21.9,-2.1 5,0 8.1,0.3 9.6,0.5 0,0.7 0.1,1.6 0.1,2.7 0.8,17.7 0.8,28.3 0.2,31.5 -0.9,0.3 -3.5,0.9 -9.6,0.9 -9,0 -18.2,-1.3 -20.6,-2 -2.5,-4.3 -3.7,-26.9 -1.6,-31.5 z"
         id="path111-2-5-5-0-5" />
      <path
         style="fill:#334b67"
         inkscape:connector-curvature="0"
         d="m 644.6,670 c 0,-4.1 -4.1,-5.4 -16.7,-5.4 -3.8,0 -22.8,0.2 -26.9,4 -5.5,5.2 -2.2,30.4 -2.1,30.6 1.4,9.3 3.4,11.5 5.2,12.4 1.9,1 6,1.5 12.1,1.5 0,0 0,0 0,0 9.1,0 24.6,-0.9 27,-6.7 1.3,-3.3 1.8,-13.6 1.5,-34.4 -0.1,-1 -0.1,-1.7 -0.1,-2 z m -8.1,33.3 c -2,1.1 -10.3,2.6 -20.4,2.6 0,0 0,0 0,0 -5,0 -7.6,-0.4 -8.5,-0.6 -2.5,-4.4 -3.7,-26.9 -1.7,-31.5 2.2,-0.9 11.1,-2.1 21.9,-2.1 5,0 8,0.3 9.6,0.5 0.3,22.9 -0.4,29.3 -0.9,31.1 z"
         id="path113-6-4-6-0-2" />
      <path
         style="fill:#334b67"
         inkscape:connector-curvature="0"
         d="m 719.8,670 c 0,-4.1 -4.1,-5.4 -16.7,-5.4 -3.8,0 -22.8,0.2 -26.9,4 -5.5,5.2 -2.2,30.4 -2.1,30.6 1.4,9.3 3.4,11.5 5.2,12.4 1.9,1 6,1.5 12.1,1.5 0,0 0,0 0,0 9.1,0 24.6,-0.9 27,-6.7 1.3,-3.3 1.8,-13.6 1.5,-34.4 -0.1,-1 -0.1,-1.7 -0.1,-2 z m -8.1,33.3 c -2,1.1 -10.3,2.6 -20.4,2.6 0,0 0,0 0,0 -5,0 -7.6,-0.4 -8.5,-0.6 -2.5,-4.4 -3.7,-26.9 -1.7,-31.5 2.2,-0.9 11.1,-2.1 21.9,-2.1 5,0 8,0.3 9.6,0.5 0.3,22.9 -0.4,29.3 -0.9,31.1 z"
         id="path115-4-3-0-1-5" />
      <path
         style="fill:#334b67"
         inkscape:connector-curvature="0"
         d="m 795,670 c 0,-4.1 -4.1,-5.4 -16.7,-5.4 -3.8,0 -22.8,0.2 -26.9,4 -5.5,5.2 -2.2,30.4 -2.1,30.6 1.4,9.3 3.4,11.5 5.2,12.4 1.9,1 6,1.5 12.1,1.5 0,0 0,0 0,0 9.1,0 24.6,-0.9 27,-6.7 1.3,-3.3 1.8,-13.6 1.5,-34.4 -0.1,-1 -0.1,-1.7 -0.1,-2 z m -8.1,33.3 c -2,1.1 -10.3,2.6 -20.4,2.6 0,0 0,0 0,0 -5,0 -7.6,-0.4 -8.5,-0.6 -2.5,-4.4 -3.7,-26.9 -1.7,-31.5 2.2,-0.9 11.1,-2.1 21.9,-2.1 5,0 8,0.3 9.6,0.5 0.3,22.9 -0.4,29.3 -0.9,31.1 z"
         id="path117-6-1-56-0-4" />
      <path
         style="fill:#334b67"
         inkscape:connector-curvature="0"
         d="m 766.8,816.7 c 8.6,0 20.7,-1.2 24.2,-3 1.8,-0.9 3.9,-3.1 5.2,-12.4 0,-0.3 3.4,-25.4 -2.1,-30.6 -4.1,-3.8 -23.1,-4 -26.9,-4 -12.7,0 -16.7,1.3 -16.7,5.4 0,0.5 -0.1,2.4 -0.2,4.6 -1,22.4 -0.8,31.9 0.4,35.1 1.4,3.6 6,4.9 16.1,4.9 z m -9.4,-39.6 c 0,-1.1 0.1,-1.9 0.1,-2.7 1.6,-0.3 4.6,-0.5 9.6,-0.5 10.8,0 19.7,1.2 21.9,2.1 2.1,4.6 0.9,27.2 -1.7,31.5 -2.4,0.8 -11.6,2 -20.6,2 -6.2,0 -8.7,-0.6 -9.6,-0.9 -0.5,-3.2 -0.4,-13.8 0.3,-31.5 z"
         id="path119-64-2-5-6-7" />
    </g>
    <g
       transform="matrix(0.0223695,0,0,0.0223695,109.11423,34.462616)"
       id="g157-6-3-55-3-4">
      <path
         style="fill:#d1708e"
         inkscape:connector-curvature="0"
         d="m 343.3,832.3 c 0,0 0,0 0,0 10.6,0 21.2,-0.9 24.8,-1.7 1.4,-5.7 2.2,-24.5 0.4,-28.1 -2.4,-1.2 -14.4,-3.5 -25.8,-3.5 -10.1,0 -14.1,1.8 -14.8,2.9 -1.8,3.3 -2.3,24.6 -0.2,29.1 1.2,0.5 5.8,1.3 15.6,1.3 z"
         id="path123-9-0-8-7-4" />
      <path
         style="fill:#d1708e"
         inkscape:connector-curvature="0"
         d="m 343.3,774.8 c 0,0 0,0 0,0 10.6,0 21.2,-0.9 24.8,-1.7 1.4,-5.7 2.2,-24.5 0.4,-28.1 -2.4,-1.2 -14.4,-3.5 -25.8,-3.5 -10.1,0 -14.1,1.8 -14.8,2.9 -1.8,3.3 -2.3,24.6 -0.2,29.1 1.2,0.5 5.8,1.3 15.6,1.3 z"
         id="path125-4-4-61-6-3" />
      <path
         style="fill:#d1708e"
         inkscape:connector-curvature="0"
         d="m 175.7,799 c -10.1,0 -14.1,1.8 -14.8,2.9 -1.8,3.3 -2.3,24.6 -0.2,29.1 1.3,0.5 5.8,1.3 15.7,1.3 0,0 0,0 0,0 10.6,0 21.2,-0.9 24.7,-1.7 1.4,-5.7 2.2,-24.5 0.4,-28.1 -2.4,-1.2 -14.4,-3.5 -25.8,-3.5 z"
         id="path127-46-37-93-1-0" />
      <path
         style="fill:#d1708e"
         inkscape:connector-curvature="0"
         d="m 175.7,741.5 c -10.1,0 -14.1,1.8 -14.8,2.9 -1.8,3.3 -2.3,24.6 -0.2,29.1 1.3,0.5 5.8,1.3 15.7,1.3 0,0 0,0 0,0 10.6,0 21.2,-0.9 24.7,-1.7 1.4,-5.7 2.2,-24.5 0.4,-28.1 -2.4,-1.2 -14.4,-3.5 -25.8,-3.5 z"
         id="path129-9-7-94-8-7" />
      <path
         style="fill:#d1708e"
         inkscape:connector-curvature="0"
         d="m 401.7,861.1 c 0,0 0,-0.1 0,0 -29.5,-1.1 -92.8,-2.4 -138,-3.1 -75.7,0 -115.5,1.2 -136.2,2.6 -0.3,0.1 -0.5,0.1 -0.8,0.1 0,0 0,0 0,0 -0.1,0 -0.2,0 -0.2,0 -13,0.9 -18,1.9 -19.7,2.7 -3.3,5 -2.2,17.5 -0.5,21 12.2,1.7 117.2,4.7 205.8,4.7 81.5,0 99.9,-2.5 104.1,-3.7 1.7,-10.9 1.7,-20.7 0.7,-23.5 -2.1,-0.3 -7.5,-0.6 -15.2,-0.8 0.1,0 0,0 0,0 z"
         id="path131-8-3-03-7-8" />
      <path
         style="fill:#ffe6cb"
         inkscape:connector-curvature="0"
         d="m 266,584.5 c -0.5,0 -4.5,0.9 -20.4,14.5 -9.6,8.2 -20.4,18.4 -28.5,26 -1.3,19.1 -2,40.8 -0.9,46.4 12,1.7 89.2,1.7 102.1,0.1 0.7,-5.8 0.3,-25.6 -0.6,-43.8 -4,-3.5 -8.9,-7.9 -15.2,-13.6 -12.9,-11.5 -32.2,-28.9 -36.5,-29.6 z m 31,50.9 c -0.1,2.6 -0.7,15.6 -2.8,18.4 -1,1.3 -2.4,2.2 -12,3.1 -5.7,0.5 -12.4,0.8 -18.4,0.8 0,0 0,0 0,0 -18.4,0 -20.3,-2.6 -21.3,-3.9 -4.2,-5.6 -3.5,-32.8 -0.1,-37.8 2.8,-4 9.6,-5.9 20.7,-5.9 11.1,0 26.8,2.3 30.5,5.2 1.2,0.9 4,3.2 3.4,20.1 z"
         id="path133-9-7-2-7-6" />
      <path
         style="fill:#d1708e"
         inkscape:connector-curvature="0"
         d="m 183.1,621.2 c 4.1,4.5 11.8,10.3 15.7,10.3 0,0 0,0 0,0 0.4,0 0.7,-0.1 0.8,-0.2 1.3,-0.9 6.4,-5.7 11.8,-10.8 29.6,-28 47.1,-43.1 54.6,-43.1 0.2,0 0.4,0 0.5,0 5.8,0.5 17.3,10.4 40.6,31.4 5.3,4.8 11.2,10.1 16.3,14.5 0,0 0.1,0.1 0.1,0.1 4.8,4.1 8.7,7.3 10.5,8.1 5.4,-1 12.9,-4.3 14.7,-6.3 -3.3,-3.8 -18,-17 -38.8,-33.8 0,0 0,0 0,0 -0.3,-0.3 -0.7,-0.5 -1,-0.8 -23.7,-19.2 -39.3,-30.2 -43.1,-31.7 -4.1,1.4 -21.9,13.1 -43.3,29.2 -24.7,18.4 -36.5,29.3 -39.4,33.1 z"
         id="path135-9-5-8-0-8" />
      <path
         style="fill:#d1708e"
         inkscape:connector-curvature="0"
         d="m 263,617.2 c -10.1,0 -14.1,1.8 -14.8,2.9 -1.8,3.3 -2.3,24.6 -0.2,29.1 1.3,0.5 5.8,1.3 15.7,1.3 10.6,0 21.2,-0.9 24.8,-1.7 1.4,-5.7 2.2,-24.5 0.4,-28.1 -2.4,-1.2 -14.4,-3.5 -25.9,-3.5 z"
         id="path137-8-4-1-7-8" />
      <path
         style="fill:#d1708e"
         inkscape:connector-curvature="0"
         d="m 280.5,756.2 c -17,-2 -40.3,1.3 -43.8,3.8 -2.6,5.9 -1.8,49.9 0.7,90.8 8.3,0 17.1,-0.1 26.4,-0.1 9,0.2 19,0.3 29.5,0.5 -0.1,-33.8 -0.9,-86.2 -3.2,-92.3 -0.1,-0.2 -1.8,-1.8 -9.6,-2.7 z"
         id="path139-35-6-2-4-4" />
      <path
         style="fill:#ffe6cb"
         inkscape:connector-curvature="0"
         d="m 296.8,756.3 c 3.3,8.5 3.7,75.4 3.7,95.1 35.2,0.7 74,1.5 97.6,2.4 V 715.4 c -36.5,2.1 -100.2,3.3 -152,3.7 -17.6,0.1 -34.6,0.2 -50.5,0.2 -18.3,0 -35.1,-0.1 -49.3,-0.3 -6.1,-0.1 -11.4,-0.2 -16.1,-0.3 0,19.9 0,113.8 0,134.5 18.4,-1.2 48.9,-2.1 99.9,-2.4 -0.4,-7.4 -1.4,-24.9 -1.9,-42.7 -1.5,-48.5 1.4,-51.4 3.2,-53.1 6,-6 39.6,-8.3 54.9,-5.1 6,1.3 9.3,3.3 10.5,6.4 z m 25.2,-16 c 2.8,-4 9.6,-5.9 20.7,-5.9 11.1,0 26.8,2.3 30.5,5.2 1.2,1 4.1,3.3 3.5,20.1 -0.1,2.6 -0.7,15.6 -2.8,18.4 -1,1.3 -2.4,2.2 -12,3.1 -5.7,0.5 -12.4,0.8 -18.4,0.8 0,0 0,0 0,0 -18.4,0 -20.3,-2.6 -21.3,-3.9 -4.3,-5.6 -3.7,-32.8 -0.2,-37.8 z m 0,57.5 c 2.8,-4 9.6,-5.9 20.7,-5.9 11.1,0 26.8,2.3 30.5,5.2 1.2,1 4.1,3.3 3.5,20.1 -0.1,2.6 -0.7,15.6 -2.8,18.4 -1,1.3 -2.4,2.2 -12,3.1 -5.7,0.5 -12.4,0.8 -18.4,0.8 0,0 0,0 0,0 -18.4,0 -20.3,-2.6 -21.3,-3.9 -4.3,-5.7 -3.7,-32.9 -0.2,-37.8 z m -112.4,19.4 c -0.1,2.6 -0.7,15.6 -2.8,18.4 -1,1.3 -2.4,2.2 -12,3.1 -5.7,0.5 -12.4,0.8 -18.4,0.8 0,0 0,0 0,0 -18.4,0 -20.3,-2.6 -21.3,-3.9 -4.2,-5.6 -3.5,-32.8 -0.1,-37.8 2.8,-4 9.6,-5.9 20.7,-5.9 11.1,0 26.8,2.3 30.5,5.2 1.2,0.9 4.1,3.2 3.4,20.1 z m 0,-57.5 c -0.1,2.6 -0.7,15.6 -2.8,18.4 -1,1.3 -2.4,2.2 -12,3.1 -5.7,0.5 -12.4,0.8 -18.4,0.8 0,0 0,0 0,0 -18.4,0 -20.3,-2.6 -21.3,-3.9 -4.2,-5.6 -3.5,-32.8 -0.1,-37.8 2.8,-4 9.6,-5.9 20.7,-5.9 11.1,0 26.8,2.3 30.5,5.2 1.2,0.9 4.1,3.2 3.4,20.1 z"
         id="path141-5-3-32-7-3" />
      <path
         style="fill:#d1708e"
         inkscape:connector-curvature="0"
         d="m 374.3,591.9 c -5.1,-1.3 -30.9,-0.9 -52.4,-0.1 7.5,6.2 14.5,12.1 20.1,17.1 13.6,12 13.8,13.5 14.1,15 0.2,1.2 0.1,3.1 -1.3,5.1 -4,5.5 -16.2,9 -20.2,9.6 -0.2,0 -0.5,0.1 -0.7,0.1 -1.9,0 -4.3,-1.2 -8.8,-4.7 1.8,39.8 -0.3,41.9 -1.4,43.1 -1.2,1.2 -1.9,1.9 -19.8,2.4 -9.6,0.3 -22.5,0.5 -36.1,0.5 -52.7,0 -55.2,-1.8 -56.2,-2.5 -1.9,-1.3 -3.8,-2.6 -2.9,-29.5 0.2,-5.7 0.5,-11.3 0.7,-15.7 -2.8,2.6 -4.6,4.2 -5.6,4.9 -1.4,1 -3.1,1.5 -5,1.5 0,0 0,0 0,0 -8.4,0 -19.4,-10.5 -22.5,-14.3 -0.7,-0.8 -1.6,-2.6 -0.3,-5.3 2.5,-5.2 16.6,-17 29.1,-26.8 h -49 c -2.8,1.7 -12.4,15.7 -30.1,57.9 -12,28.5 -20.4,52.9 -21.6,60.2 3.6,0.4 11.4,0.8 22.2,1.1 0,0 0,0 0.1,0 0,0 0.1,0 0.1,0 29,0.7 80.3,0.9 136.4,0.3 97.4,-1.1 149.7,-3.7 159.9,-5.8 -1,-6.3 -8.4,-27.1 -21.5,-57.7 -13.4,-31.6 -24.2,-53.1 -27.3,-56.4 z"
         id="path143-8-1-2-7-1" />
      <path
         style="fill:#753b4e"
         inkscape:connector-curvature="0"
         d="m 391.6,608.5 c -10.6,-21.8 -12.8,-22.6 -14.4,-23.2 -7.3,-2.7 -51.6,-0.8 -63.7,-0.3 -41.5,-33.5 -46.1,-33.5 -47.7,-33.5 -5.8,0 -34,20.6 -45.9,29.4 -1.6,1.2 -3.5,2.6 -5.5,4.1 h -58.7 c -2.7,0 -7.8,0 -25.1,37 -8,17 -16.9,38.4 -23.8,57.3 -11.9,32.2 -10.1,34.3 -8.6,36.1 1.1,1.3 2,2.4 25,3 0,19.6 0,115.6 0,135.2 -19.3,1.6 -20.8,3.5 -21.9,4.9 -6,8 -4.2,26.8 0.3,31.3 1.2,1.2 1.7,1.7 23,2.7 12.5,0.6 29.9,1.1 50.2,1.7 44.7,1.1 96,1.8 137.3,1.8 0,0 0,0 0,0 31.9,0 57.3,-0.4 75.5,-1.1 10.1,-0.4 18,-1 23.4,-1.6 7.6,-0.9 11.3,-1.9 11.9,-5.4 0.4,-2.3 1.6,-10.2 1.7,-18 0.1,-9 -1.3,-13.4 -4.8,-14.8 -0.9,-0.4 -6.2,-0.7 -14.6,-1.1 V 715 c 6.8,-0.5 12.4,-1 16.2,-1.5 5.1,-0.7 7.5,-1.4 8.5,-3.6 0.8,-1.7 2.8,-6.2 -18.8,-57.4 -6.4,-15.9 -13.6,-31.9 -19.5,-44 z M 222.6,588 c 21.4,-16 39.2,-27.7 43.3,-29.2 3.7,1.5 19.3,12.6 43.1,31.7 0.3,0.3 0.7,0.5 1,0.8 0,0 0,0 0,0 20.8,16.8 35.5,29.9 38.8,33.8 -1.8,2 -9.3,5.3 -14.7,6.3 -1.7,-0.8 -5.7,-3.9 -10.5,-8.1 0,0 -0.1,-0.1 -0.1,-0.1 -5,-4.3 -11,-9.7 -16.3,-14.5 -23.3,-21 -34.9,-31 -40.6,-31.4 -0.2,0 -0.4,0 -0.5,0 -7.5,0 -25,15.2 -54.6,43.1 -5.4,5.1 -10.5,9.9 -11.8,10.8 -0.2,0.1 -0.4,0.2 -0.8,0.2 0,0 0,0 0,0 -3.9,0 -11.6,-5.8 -15.7,-10.3 2.8,-3.7 14.6,-14.6 39.4,-33.1 z m 95.7,83.5 c -12.9,1.7 -90.1,1.6 -102.1,-0.1 -1.1,-5.6 -0.4,-27.4 0.9,-46.4 8.1,-7.6 18.8,-17.8 28.5,-26 15.9,-13.6 19.9,-14.5 20.4,-14.5 4.4,0.7 23.7,18.1 36.4,29.6 6.3,5.7 11.3,10.1 15.2,13.6 0.9,18.2 1.4,38 0.7,43.8 z m 98.6,190.3 c 1.1,2.7 1,12.6 -0.7,23.5 -4.1,1.2 -22.6,3.7 -104.1,3.7 -88.7,0 -193.6,-3 -205.8,-4.7 -1.7,-3.5 -2.8,-15.9 0.5,-21 1.7,-0.8 6.7,-1.8 19.7,-2.7 0.1,0 0.2,0 0.2,0 0,0 0,0 0,0 0.3,0 0.5,0 0.8,-0.1 20.7,-1.4 60.5,-2.6 136.2,-2.6 45.2,0.8 108.4,2 137.9,3.1 0,0 0.1,0 0.1,0 0,0 0,0 0,0 7.7,0.3 13.1,0.6 15.2,0.8 z M 286.4,749.9 c -15.2,-3.2 -48.9,-0.8 -54.9,5.1 -1.7,1.7 -4.6,4.6 -3.2,53.1 0.5,17.7 1.5,35.2 1.9,42.7 -51,0.3 -81.5,1.2 -99.9,2.4 0,-20.7 0,-114.6 0,-134.5 4.6,0.1 9.9,0.2 16.1,0.3 14.2,0.2 30.9,0.3 49.3,0.3 15.9,0 32.9,-0.1 50.5,-0.2 51.8,-0.4 115.5,-1.6 152,-3.7 v 138.4 c -23.6,-0.9 -62.5,-1.7 -97.6,-2.4 0,-19.8 -0.4,-86.6 -3.7,-95.1 -1.3,-3.1 -4.6,-5.1 -10.5,-6.4 z m 6.9,101.4 c -10.5,-0.2 -20.5,-0.4 -29.5,-0.5 -9.3,0 -18.1,0 -26.4,0.1 -2.4,-40.9 -3.3,-84.9 -0.7,-90.8 3.5,-2.5 26.8,-5.7 43.8,-3.8 7.8,0.9 9.5,2.5 9.7,2.7 2.2,6.1 3.1,58.5 3.1,92.3 z m -30,-139.5 c -56.2,0.6 -107.5,0.5 -136.4,-0.3 0,0 -0.1,0 -0.1,0 0,0 0,0 -0.1,0 -10.9,-0.3 -18.6,-0.6 -22.2,-1.1 1.3,-7.4 9.7,-31.7 21.6,-60.2 17.7,-42.2 27.3,-56.2 30.1,-57.9 h 49 c -12.5,9.8 -26.6,21.5 -29.1,26.8 -1.3,2.7 -0.4,4.4 0.3,5.3 3.1,3.8 14.1,14.3 22.5,14.3 0,0 0,0 0,0 1.9,0 3.6,-0.5 5,-1.5 1,-0.7 2.8,-2.3 5.6,-4.9 -0.3,4.5 -0.5,10.1 -0.7,15.7 -0.9,26.9 1,28.3 2.9,29.5 1,0.7 3.5,2.5 56.2,2.5 13.7,0 26.5,-0.2 36.1,-0.5 17.9,-0.5 18.6,-1.2 19.8,-2.4 1.2,-1.2 3.3,-3.3 1.4,-43.1 4.5,3.5 6.9,4.7 8.8,4.7 0.3,0 0.5,0 0.7,-0.1 4,-0.6 16.2,-4.1 20.2,-9.6 1.5,-2 1.5,-3.9 1.3,-5.1 -0.2,-1.5 -0.5,-3 -14.1,-15 -5.6,-5 -12.6,-10.9 -20.1,-17.1 21.5,-0.8 47.4,-1.3 52.4,0.1 3,3.2 13.9,24.7 27.4,56.3 13.1,30.6 20.4,51.4 21.5,57.7 -10.3,2.2 -62.7,4.8 -160,5.9 z"
         id="path145-0-2-0-4-4" />
      <path
         style="fill:#753b4e"
         inkscape:connector-curvature="0"
         d="m 293.5,615.3 c -3.7,-2.9 -19.4,-5.2 -30.5,-5.2 -11.1,0 -17.9,1.9 -20.7,5.9 -3.5,5 -4.1,32.2 0.1,37.8 1,1.4 2.9,3.9 21.3,3.9 0,0 0,0 0,0 6,0 12.7,-0.3 18.4,-0.8 9.6,-0.9 11,-1.8 12,-3.1 2.1,-2.8 2.7,-15.8 2.8,-18.4 0.7,-16.9 -2.1,-19.2 -3.4,-20.1 z m -5,33.6 c -3.5,0.7 -14.1,1.7 -24.8,1.7 -9.8,0 -14.4,-0.8 -15.7,-1.3 -2.1,-4.4 -1.6,-25.8 0.2,-29.1 0.8,-1.1 4.7,-2.9 14.8,-2.9 11.4,0 23.5,2.3 25.8,3.5 1.9,3.5 1,22.4 -0.3,28.1 z"
         id="path147-8-0-9-1-9" />
      <path
         style="fill:#753b4e"
         inkscape:connector-curvature="0"
         d="m 206.1,739.6 c -3.7,-2.9 -19.4,-5.2 -30.5,-5.2 -11.1,0 -17.9,1.9 -20.7,5.9 -3.5,5 -4.1,32.2 0.1,37.8 1,1.4 2.9,3.9 21.3,3.9 0,0 0,0 0,0 6,0 12.7,-0.3 18.4,-0.8 9.6,-0.9 11,-1.8 12,-3.1 2.1,-2.8 2.7,-15.8 2.8,-18.4 0.8,-16.9 -2.1,-19.2 -3.4,-20.1 z m -5,33.6 c -3.5,0.7 -14.1,1.7 -24.7,1.7 0,0 0,0 0,0 -9.8,0 -14.4,-0.8 -15.7,-1.3 -2.1,-4.4 -1.6,-25.8 0.2,-29.1 0.8,-1.1 4.7,-2.9 14.8,-2.9 11.4,0 23.5,2.3 25.8,3.5 1.8,3.5 1,22.4 -0.4,28.1 z"
         id="path149-2-0-27-0-2" />
      <path
         style="fill:#753b4e"
         inkscape:connector-curvature="0"
         d="m 343.3,782 c 0,0 0,0 0,0 6,0 12.8,-0.3 18.4,-0.8 9.6,-0.9 11,-1.8 12,-3.1 2.1,-2.8 2.7,-15.8 2.8,-18.4 0.7,-16.8 -2.2,-19.2 -3.5,-20.1 -3.7,-2.9 -19.4,-5.2 -30.5,-5.2 -11.1,0 -17.9,1.9 -20.7,5.9 -3.5,5 -4.1,32.2 0.1,37.8 1.1,1.3 3,3.9 21.4,3.9 z m -15.5,-37.6 c 0.8,-1.1 4.7,-2.9 14.8,-2.9 11.4,0 23.5,2.3 25.8,3.5 1.8,3.6 1,22.4 -0.4,28.1 -3.5,0.7 -14.1,1.7 -24.7,1.7 0,0 0,0 0,0 -9.8,0 -14.4,-0.8 -15.7,-1.3 -2.1,-4.5 -1.6,-25.8 0.2,-29.1 z"
         id="path151-8-9-4-7-0" />
      <path
         style="fill:#753b4e"
         inkscape:connector-curvature="0"
         d="m 206.1,797 c -3.7,-2.9 -19.4,-5.2 -30.5,-5.2 -11.1,0 -17.9,1.9 -20.7,5.9 -3.5,5 -4.1,32.2 0.1,37.8 1,1.4 2.9,3.9 21.3,3.9 0,0 0,0 0,0 6,0 12.7,-0.3 18.4,-0.8 9.6,-0.9 11,-1.8 12,-3.1 2.1,-2.8 2.7,-15.8 2.8,-18.4 0.8,-16.8 -2.1,-19.1 -3.4,-20.1 z m -5,33.6 c -3.5,0.7 -14.1,1.7 -24.7,1.7 0,0 0,0 0,0 -9.8,0 -14.4,-0.8 -15.7,-1.3 -2.1,-4.4 -1.6,-25.8 0.2,-29.1 0.8,-1.1 4.7,-2.9 14.8,-2.9 11.4,0 23.5,2.3 25.8,3.5 1.8,3.6 1,22.5 -0.4,28.1 z"
         id="path153-1-4-50-0-6" />
      <path
         style="fill:#753b4e"
         inkscape:connector-curvature="0"
         d="m 343.3,839.5 c 0,0 0,0 0,0 6,0 12.8,-0.3 18.4,-0.8 9.6,-0.9 11,-1.8 12,-3.1 2.1,-2.8 2.7,-15.8 2.8,-18.4 0.7,-16.8 -2.2,-19.2 -3.5,-20.1 -3.7,-2.9 -19.4,-5.2 -30.5,-5.2 -11.1,0 -17.9,1.9 -20.7,5.9 -3.5,5 -4.1,32.2 0.1,37.8 1.1,1.3 3,3.9 21.4,3.9 z m -15.5,-37.6 c 0.8,-1.1 4.7,-2.9 14.8,-2.9 11.4,0 23.5,2.3 25.8,3.5 1.8,3.6 1,22.4 -0.4,28.1 -3.5,0.7 -14.1,1.7 -24.7,1.7 0,0 0,0 0,0 -9.8,0 -14.4,-0.8 -15.7,-1.3 -2.1,-4.5 -1.6,-25.8 0.2,-29.1 z"
         id="path155-41-0-9-7-8" />
    </g>
    <g
       transform="matrix(0.0223695,0,0,0.0223695,110.54989,34.736616)"
       id="g193-2-4-21-2-9">
      <path
         style="fill:#ffe6cb"
         inkscape:connector-curvature="0"
         d="m 1001.8,815 h 78.5 c -0.1,-7.8 -0.1,-16.5 -0.1,-25.2 0,-2.4 0,-4.7 0.1,-6.9 h -78.5 z"
         id="path159-0-5-6-2-2" />
      <path
         style="fill:#ffe6cb"
         inkscape:connector-curvature="0"
         d="m 1001.8,675.6 v 14.7 h 241.7 v -19.8 c -8.5,-6.5 -19.3,-15.1 -32.9,-26.1 h -169.4 c -16.8,13.6 -30,24.1 -39.4,31.2 z"
         id="path161-1-80-0-9-6" />
      <path
         style="fill:#ffe6cb"
         inkscape:connector-curvature="0"
         d="m 1198.9,635 c -9.1,-7.4 -19.4,-15.7 -29.2,-23.5 l -33.1,25.8 h 65.1 c -0.9,-0.8 -1.9,-1.5 -2.8,-2.3 z"
         id="path163-8-8-8-2-6" />
      <path
         style="fill:#ffe6cb"
         inkscape:connector-curvature="0"
         d="m 1129.8,633.5 34.1,-26.6 c -14.5,-11.4 -27.5,-21.3 -34.1,-25.1 z"
         id="path165-3-6-1-3-4" />
      <path
         style="fill:#ffe6cb"
         inkscape:connector-curvature="0"
         d="m 1050,637.3 h 64.7 L 1080,613.2 c -10.2,8.1 -20.7,16.6 -30,24.1 z"
         id="path167-8-2-5-6-9" />
      <path
         style="fill:#ffe6cb"
         inkscape:connector-curvature="0"
         d="m 1122.6,581.8 c -7,3.9 -21.1,14.5 -36.7,26.8 l 36.7,25.4 z"
         id="path169-4-5-90-5-5" />
      <path
         style="fill:#ca7b4c"
         inkscape:connector-curvature="0"
         d="m 998.3,852.6 c 0,0 -0.1,0 0,0 -0.1,0 -0.1,0 0,0 -13.3,0.9 -22,1.8 -24.8,2.9 -2.4,5.9 -3.5,15.4 -1.3,21 0.7,1.8 1.7,3 2.9,3.6 3.2,0.8 28.2,1.7 88.3,1.7 88.8,0 193.5,-1.9 204.6,-4.4 2.1,-3 4,-13.5 2.7,-21.3 -0.5,-3.3 -1.5,-4.7 -2,-5.1 -4.6,-1 -39.7,-1.9 -99.2,-1.9 -73.8,-0.2 -137.4,1.3 -171.2,3.5 z"
         id="path171-1-3-9-0-0" />
      <path
         style="fill:#ca7b4c"
         inkscape:connector-curvature="0"
         d="m 1240,613.4 c 1.2,-29.9 1.9,-61.2 1.1,-66.5 -4.2,-2.6 -26,-1.2 -30,1.2 -2.1,3.4 -3.5,23.3 -3.6,40.7 3.4,2.5 6,4.5 7.8,5.8 8.6,6.5 16.9,12.8 24.7,18.8 z"
         id="path173-48-7-8-8-4" />
      <path
         style="fill:#ffe6cb"
         inkscape:connector-curvature="0"
         d="m 1001.8,732.8 h 81.7 c 1,-4.2 2.1,-5.1 2.9,-5.8 5.4,-4.5 24.9,-5 36,-4.9 6.9,0.1 29.7,0.6 34.6,5 0.7,0.6 1.6,1.4 2.5,5.7 h 84 v -35.3 h -241.7 z"
         id="path175-7-7-3-5-8" />
      <path
         style="fill:#ffe6cb"
         inkscape:connector-curvature="0"
         d="m 1001.8,845.2 c 9.4,-0.6 21.4,-1.1 36.9,-1.6 12.6,-0.4 26.9,-0.7 42.1,-1 -0.1,-3.8 -0.3,-11.2 -0.4,-20.4 h -78.6 z"
         id="path177-6-5-8-4-7" />
      <path
         style="fill:#ffe6cb"
         inkscape:connector-curvature="0"
         d="m 1001.8,775.7 h 78.6 c 0.3,-17.7 1,-28.8 1.9,-35.8 h -80.5 z"
         id="path179-2-3-44-9-1" />
      <path
         style="fill:#ffe6cb"
         inkscape:connector-curvature="0"
         d="m 1243.5,782.9 h -80.4 c 0.1,2 0.1,4.2 0.2,6.4 0.3,8.9 0.5,17.8 0.6,25.8 h 79.6 z"
         id="path181-3-9-46-1-7" />
      <path
         style="fill:#ca7b4c"
         inkscape:connector-curvature="0"
         d="m 1087.9,842.4 c 21.7,-0.4 45.3,-0.6 69.1,-0.6 -0.3,-42.5 -1.7,-88.3 -4,-104.4 -0.1,-0.3 -0.2,-0.7 -0.2,-1.1 0,0 0,-0.1 0,-0.1 -0.3,-1.9 -0.6,-3.2 -0.9,-4 -2.4,-1.2 -13.9,-2.9 -30.4,-3 -18.7,-0.1 -28.5,1.8 -30.5,3.1 -0.4,0.7 -0.8,2.1 -1.1,3.9 0,0 0,0.1 0,0.1 0,0.4 -0.1,0.9 -0.2,1.2 -2.4,16 -2.9,61.9 -1.8,104.9 z"
         id="path183-4-9-2-9-2" />
      <path
         style="fill:#ffe6cb"
         inkscape:connector-curvature="0"
         d="m 1169.5,841.8 c 17.8,0 50.3,0.1 73.9,0.7 V 822.2 H 1164 c 0.1,8.6 0.2,15.6 0.2,19.6 1.8,0 3.6,0 5.3,0 z"
         id="path185-3-8-5-6-7" />
      <path
         style="fill:#ffe6cb"
         inkscape:connector-curvature="0"
         d="m 1243.5,739.9 h -82.9 c 0.8,7 1.6,18.1 2.3,35.8 h 80.7 v -35.8 z"
         id="path187-4-9-07-9-2" />
      <path
         style="fill:#ca7b4c"
         inkscape:connector-curvature="0"
         d="m 1241.2,623.4 c -0.1,0 -0.1,-0.1 -0.2,-0.1 -9.3,-7.3 -19.9,-15.3 -31.6,-24.1 -48.4,-36.2 -79.4,-56.7 -84.2,-57.7 -5.5,0.1 -37.1,19.1 -85.2,54.1 -45.1,32.9 -74.1,57.9 -77.1,64 4.3,9.9 9.6,19.8 17.4,19.8 1.4,0 2.8,-0.3 4.4,-0.8 5.3,-1.9 33.1,-24.4 57.7,-44.2 51.5,-41.6 76.6,-61.2 83.9,-61.2 5.1,0 18.8,9.7 45.7,31.1 0,0 0.1,0.1 0.1,0.1 8.9,7.1 19.3,15.5 31.3,25.2 26.9,21.8 60.4,48.9 66,50 0.4,0 0.9,0.1 1.4,0.1 v 0 c 5.4,0 11.4,-3.1 15.1,-7.8 2.2,-2.8 3.1,-5.7 2.6,-8.1 -1.9,-3.5 -18.6,-18 -47.3,-40.4 z"
         id="path189-6-7-9-2-2" />
      <path
         style="fill:#724222"
         inkscape:connector-curvature="0"
         d="m 1269.2,636.6 c -6.5,-5.3 -14,-11.3 -22.2,-17.7 0.8,-18.3 2.7,-69.1 0.9,-74.6 -0.7,-2.1 -2.5,-3.6 -5.5,-4.5 -8.9,-2.8 -30.5,-1.1 -35.6,2.8 -2.1,1.6 -4.4,5.1 -5.6,26.6 -0.3,5.3 -0.5,10.5 -0.5,14.4 -24,-17.7 -65.7,-47.7 -74.1,-49.2 -0.3,-0.1 -0.7,-0.1 -1.1,-0.1 -11.9,0 -68.4,40.2 -85.4,52.6 -35.8,25.9 -75.2,57.1 -82.6,68.2 -1.1,1.6 -2.4,4 -1.3,6.4 5.2,12.4 12.2,25 24.3,25 2.2,0 4.5,-0.4 6.8,-1.3 1.6,-0.6 4.1,-2.1 7.6,-4.5 v 164.8 c -25.4,1.8 -26.3,3.9 -27.3,6 -3.3,7.1 -5,19.2 -1.8,27.4 1.4,3.7 3.8,6.3 6.8,7.6 1.3,0.5 5.1,2.2 91,2.2 44.9,0 95.2,-0.5 134.6,-1.3 71.5,-1.5 73.2,-3.2 74.7,-4.7 4.6,-4.6 6.6,-19.1 5.1,-28 -0.9,-5.4 -2.9,-8.9 -6.1,-10.5 -1.5,-0.8 -9.7,-1.3 -21.1,-1.7 V 675.9 c 9.4,6.9 15.1,10.3 17.9,10.6 0.7,0.1 1.5,0.1 2.3,0.1 0,0 0,0 0,0 7.6,0 15.7,-4.1 20.7,-10.6 3.7,-4.7 5,-9.8 3.9,-14.4 -0.6,-1.6 -1.4,-4.5 -26.4,-25 z m -58.1,-88.5 c 4,-2.4 25.8,-3.8 30,-1.2 0.8,5.3 0.1,36.6 -1.1,66.5 -7.8,-6 -16.1,-12.4 -24.7,-18.8 -1.7,-1.3 -4.4,-3.3 -7.8,-5.8 0.2,-17.4 1.5,-37.2 3.6,-40.7 z m 57.6,302.8 c 0.6,0.4 1.5,1.9 2,5.1 1.3,7.8 -0.7,18.3 -2.7,21.3 -11.1,2.5 -115.7,4.4 -204.6,4.4 -60.1,0 -85.1,-0.9 -88.3,-1.7 -1.2,-0.6 -2.2,-1.8 -2.9,-3.6 -2.2,-5.6 -1.1,-15.1 1.3,-21 2.8,-1 11.4,-2 24.7,-2.9 0,0 0,0 0,0 0,0 0,0 0.1,0 33.8,-2.2 97.4,-3.6 171.3,-3.6 59.4,0 94.6,1 99.1,2 z m -154,-213.6 H 1050 c 9.3,-7.5 19.8,-16 30,-24.1 z m -28.8,-28.7 c 15.6,-12.2 29.7,-22.8 36.7,-26.8 V 634 Z m 124.7,35.8 c 13.6,10.9 24.4,19.5 32.9,26.1 v 19.8 h -241.7 v -14.7 c 9.4,-7 22.6,-17.6 39.3,-31.1 h 169.5 z m -80.8,-10.9 v -51.7 c 6.6,3.8 19.6,13.6 34.1,25.1 z m 39.9,-22 c 9.9,7.8 20.1,16.1 29.2,23.5 1,0.8 1.9,1.5 2.8,2.3 h -65.1 z m 73.8,85.9 v 35.3 h -84 c -0.9,-4.3 -1.8,-5.1 -2.5,-5.7 -4.9,-4.3 -27.7,-4.9 -34.6,-5 -11.1,-0.1 -30.5,0.4 -36,4.9 -0.8,0.7 -1.9,1.6 -2.9,5.8 h -81.7 V 697.4 Z M 1163.9,815 c -0.1,-8 -0.3,-16.9 -0.6,-25.8 -0.1,-2.2 -0.1,-4.3 -0.2,-6.4 h 80.4 V 815 Z m 79.6,7.2 v 20.3 c -23.6,-0.6 -56.1,-0.7 -73.9,-0.7 -1.8,0 -3.5,0 -5.3,0 0,-4 -0.1,-11 -0.2,-19.6 z m -80.7,-46.5 c -0.7,-17.7 -1.5,-28.8 -2.3,-35.8 h 82.9 v 35.8 z M 1090,736.2 c 0.3,-1.9 0.7,-3.2 1.1,-3.9 2,-1.3 11.8,-3.3 30.5,-3.1 16.5,0.1 27.9,1.8 30.4,3 0.3,0.8 0.6,2.2 0.9,4 0,0 0,0.1 0,0.1 0,0.4 0.1,0.7 0.2,1.1 2.3,16.1 3.7,61.9 4,104.4 -23.8,0.1 -47.4,0.3 -69.1,0.6 -1.1,-43 -0.7,-88.9 1.8,-104.8 0.1,-0.4 0.2,-0.8 0.2,-1.4 0,0.1 0,0.1 0,0 z m -7.7,3.7 c -0.8,7 -1.5,18.1 -1.9,35.8 h -78.6 v -35.8 z m -2,43 c 0,2.2 0,4.5 -0.1,6.9 0,8.7 0,17.4 0.1,25.2 h -78.5 v -32.2 h 78.5 z m 0.1,39.3 c 0.1,9.2 0.3,16.5 0.4,20.4 -15.3,0.3 -29.5,0.6 -42.1,1 -15.4,0.5 -27.5,1 -36.9,1.6 v -23 z m 205.5,-150.5 c -3.7,4.7 -9.7,7.8 -15.1,7.8 v 0 c -0.5,0 -1,0 -1.4,-0.1 -5.6,-1.1 -39.1,-28.2 -66,-50 -12,-9.7 -22.4,-18.1 -31.3,-25.2 0,0 -0.1,-0.1 -0.1,-0.1 -27,-21.4 -40.6,-31.1 -45.7,-31.1 -7.3,0 -32.4,19.6 -83.9,61.2 -24.6,19.8 -52.4,42.3 -57.7,44.2 -1.5,0.6 -3,0.8 -4.4,0.8 -7.7,0 -13.1,-9.9 -17.4,-19.8 3,-6 32,-31 77.1,-64 48,-35.1 79.7,-54 85.2,-54.1 4.8,1 35.9,21.5 84.2,57.7 11.8,8.8 22.3,16.9 31.6,24.1 0.1,0 0.1,0.1 0.2,0.1 28.7,22.4 45.3,36.8 47.3,40.2 0.5,2.6 -0.5,5.5 -2.6,8.3 z"
         id="path191-2-2-47-4-6" />
    </g>
    <path
       style="fill:#ffffff;fill-opacity:1;stroke:none;stroke-width:0.26458332px;stroke-linecap:butt;stroke-linejoin:miter;stroke-opacity:1"
       d="m 81.30321,60.350436 2.77812,-0.0331 0.033,0.84334 2.48047,-1.82726 -4.05143,-3.15846 -2.72851,2.72023 z"
       id="path4885-1"
       inkscape:connector-curvature="0"
       sodipodi:nodetypes="ccccccc" />
    <g
       id="g4831-56-2-3-1"
       transform="matrix(0.19642072,-0.19642072,0.19642072,0.19642072,22.282592,12.663856)">
      <g
         style="stroke:#6389b6;stroke-opacity:1"
         id="g4766-7-3-6-5">
        <path
           style="fill:#ffffff;fill-opacity:1;stroke:#6389b6;stroke-width:0.80000001;stroke-miterlimit:4;stroke-dasharray:none;stroke-opacity:1"
           d="m 35.141422,264.66037 h 6.156242 c 1.108,0 2,0.892 2,2 v 6.15624 c 0,1.108 -0.892,2 -2,2 h -6.156242 c -1.108,0 -2,-0.892 -2,-2 v -6.15624 c 0,-1.108 0.892,-2 2,-2 z"
           id="rect3619-5-9-7-9" />
        <g
           style="stroke:#6389b6;stroke-opacity:1"
           id="g4619-5-2-5-7"
           transform="translate(0.18970823,-0.14972353)">
          <path
             style="fill:#6389b6;fill-opacity:1;fill-rule:evenodd;stroke:#6389b6;stroke-width:0.26458332;stroke-opacity:1"
             d="m 40.825421,272.15463 a 0.86862594,0.86862594 0 0 1 -0.868626,0.86863 0.86862594,0.86862594 0 0 1 -0.868626,-0.86863 0.86862594,0.86862594 0 0 1 0.868626,-0.86862 0.86862594,0.86862594 0 0 1 0.868626,0.86862 z"
             id="path4426-7-7-3-7" />
          <path
             style="fill:#6389b6;fill-opacity:1;fill-rule:evenodd;stroke:#6389b6;stroke-width:0.26458332;stroke-opacity:1"
             d="m 36.971501,272.15463 a 0.86862594,0.86862594 0 0 1 -0.868626,0.86863 0.86862594,0.86862594 0 0 1 -0.868626,-0.86863 0.86862594,0.86862594 0 0 1 0.868626,-0.86862 0.86862594,0.86862594 0 0 1 0.868626,0.86862 z"
             id="path4426-6-9-4-5-6" />
          <path
             style="fill:#6389b6;fill-opacity:1;fill-rule:evenodd;stroke:#6389b6;stroke-width:0.26458332;stroke-opacity:1"
             d="m 40.825421,269.88821 a 0.86862594,0.86862594 0 0 1 -0.868626,0.86863 0.86862594,0.86862594 0 0 1 -0.868626,-0.86863 0.86862594,0.86862594 0 0 1 0.868626,-0.86862 0.86862594,0.86862594 0 0 1 0.868626,0.86862 z"
             id="path4426-4-5-0-6-7" />
          <path
             style="fill:#6389b6;fill-opacity:1;fill-rule:evenodd;stroke:#6389b6;stroke-width:0.26458332;stroke-opacity:1"
             d="m 36.971501,269.88821 a 0.86862594,0.86862594 0 0 1 -0.868626,0.86863 0.86862594,0.86862594 0 0 1 -0.868626,-0.86863 0.86862594,0.86862594 0 0 1 0.868626,-0.86862 0.86862594,0.86862594 0 0 1 0.868626,0.86862 z"
             id="path4426-3-3-2-2-3" />
          <path
             style="fill:#6389b6;fill-opacity:1;fill-rule:evenodd;stroke:#6389b6;stroke-width:0.26458332;stroke-opacity:1"
             d="m 40.825421,267.6218 a 0.86862594,0.86862594 0 0 1 -0.868626,0.86862 0.86862594,0.86862594 0 0 1 -0.868626,-0.86862 0.86862594,0.86862594 0 0 1 0.868626,-0.86863 0.86862594,0.86862594 0 0 1 0.868626,0.86863 z"
             id="path4426-39-5-7-9-6" />
          <path
             style="fill:#6389b6;fill-opacity:1;fill-rule:evenodd;stroke:#6389b6;stroke-width:0.26458332;stroke-opacity:1"
             d="m 36.971501,267.6218 a 0.86862594,0.86862594 0 0 1 -0.868626,0.86862 0.86862594,0.86862594 0 0 1 -0.868626,-0.86862 0.86862594,0.86862594 0 0 1 0.868626,-0.86863 0.86862594,0.86862594 0 0 1 0.868626,0.86863 z"
             id="path4426-2-1-9-1-5" />
        </g>
      </g>
    </g>
    <g
       id="g6251-6"
       transform="matrix(0.16728037,0,0,0.16728037,-30.488208,13.206601)">
      <path
         style="fill:#486cad;fill-opacity:1;stroke:#486cad;stroke-width:0.26458332px;stroke-linecap:butt;stroke-linejoin:miter;stroke-opacity:1"
         d="m 796.02343,248.0763 c 6.78989,0 20.3694,-2e-5 27.15904,0.0154 6.78964,0.0154 6.78967,0.0469 6.78969,0.078 0.005,-1.78837 0.009,-3.57699 -0.0808,-5.10676 -0.0903,-1.52977 -0.27545,-2.80096 -0.48089,-4.09593 -0.20544,-1.29498 -0.43111,-2.61372 -0.69168,-3.89026 -0.26056,-1.27654 -0.556,-2.51088 -0.89078,-3.70479 -0.33478,-1.19392 -0.70902,-2.34783 -1.11435,-3.51704 -0.40533,-1.16921 -0.84194,-2.35427 -1.25232,-3.3021 -0.41039,-0.94782 -0.7947,-1.6588 -1.00335,-2.28437 -0.20865,-0.62558 -0.24172,-1.16585 -0.25824,-1.43582 -0.0165,-0.26997 -0.0165,-5.69393 0.011,-6.60505 0.0276,-0.91113 0.0827,-2.73363 0.0107,-4.59117 -0.072,-1.85754 -0.27101,-3.7504 -0.44459,-5.07879 -0.17358,-1.32838 -0.3217,-2.09233 -0.50489,-3.05115 -0.18319,-0.95882 -0.40147,-2.11255 -0.63143,-3.13763 -0.22997,-1.02508 -0.47162,-1.92155 -0.70547,-2.86479 -0.23386,-0.94324 -0.45993,-1.93325 -0.70937,-2.59578 -0.24945,-0.66252 -0.52229,-0.99772 -0.84567,-1.23541 -0.32337,-0.23769 -0.69748,-0.37797 -1.36809,-0.36632 -0.67061,0.0117 -1.63655,0.17525 -2.84517,0.42476 -1.20862,0.24951 -2.65816,0.58462 -3.83536,0.91984 -1.1772,0.33522 -2.08086,0.67019 -2.9465,1.0601 -0.86564,0.3899 -1.69161,0.83405 -2.48687,1.30964 -0.79526,0.47558 -1.55862,0.98188 -2.30342,1.53948 -0.7448,0.55759 -1.46919,1.16515 -2.05796,1.68762 -0.58877,0.52247 -1.04047,0.95861 -1.53576,1.46948 -0.49528,0.51087 -1.03288,1.09521 -1.4929,1.6098 -0.46002,0.51459 -0.84157,0.95843 -1.2316,1.44984 -0.39002,0.49141 -0.78734,1.02895 -1.16164,1.60598 -0.37429,0.57702 -0.72469,1.19217 -1.05228,1.80054 -0.32759,0.60836 -0.63144,1.20827 -0.85735,1.60014 -0.22591,0.39187 -0.37343,0.5749 -0.68425,0.64986 -0.31082,0.075 -0.7828,0.041 -1.50705,0.18452 -0.72425,0.14351 -1.69855,0.46429 -2.60459,0.81936 -0.90605,0.35507 -1.74184,0.74369 -2.58547,1.2272 -0.84364,0.4835 -1.69325,1.06087 -2.37174,1.68378 -0.67849,0.62292 -1.18444,1.29031 -1.43373,1.68788 -0.24929,0.39757 -0.2415,0.52492 0.15615,0.77453 0.39764,0.24961 1.18495,0.6211 1.92522,1.03478 0.74026,0.41367 1.43366,0.86965 2.12053,1.26458 0.68686,0.39493 1.36728,0.72887 2.0574,1.07777 0.69012,0.3489 1.38998,0.71275 1.98102,1.05203 0.59104,0.33929 1.07336,0.65404 1.50606,0.95443 0.4327,0.30039 0.81585,0.58646 0.93048,1.00905 0.11462,0.42258 -0.0392,0.98171 -0.29234,1.72266 -0.25312,0.74095 -0.60485,1.66169 -0.87134,2.53731 -0.2665,0.87561 -0.44708,1.7041 -0.63838,2.57612 -0.19129,0.87203 -0.39287,1.78572 -0.57262,2.67008 -0.17975,0.88437 -0.33728,1.73756 -0.49735,2.72517 -0.16006,0.98762 -0.32237,2.10794 -0.48932,3.16733 -0.16695,1.0594 -0.3384,2.05695 -0.53331,3.09388 -0.19491,1.03694 -0.41312,2.11238 -0.62827,3.15852 -0.21515,1.04614 -0.427,2.06178 -0.59076,2.95072 -0.16377,0.88895 -0.27917,1.64983 -0.32907,2.00696 -0.0499,0.35714 -0.0344,0.31042 -0.0266,0.28717 0.008,-0.0233 0.008,-0.0232 6.79759,-0.0232 z"
         id="path6224-2" />
      <path
         style="fill:#000000;fill-opacity:1;stroke:#000000;stroke-width:1;stroke-linecap:butt;stroke-linejoin:miter;stroke-miterlimit:4;stroke-dasharray:none;stroke-opacity:1"
         d="m 812.26094,214.6537 c 0.95827,-0.24816 1.1657,-0.32638 1.69265,-0.56946 0.52695,-0.24308 1.01249,-0.51499 1.36516,-0.86573 0.35268,-0.35074 0.57333,-0.78101 0.76066,-1.2108 0.18733,-0.42978 0.34179,-0.86006 0.42991,-1.38346 0.0881,-0.5234 0.11018,-1.14122 0.12671,-1.65376 0.0165,-0.51254 0.0276,-0.92061 -0.0992,-1.3448 -0.12671,-0.42419 -0.39147,-0.86546 -0.7001,-1.26778 -0.30863,-0.40232 -0.66147,-0.7662 -1.16855,-1.16855 -0.50708,-0.40236 -1.16854,-0.84334 -1.70872,-1.14651 -0.54017,-0.30317 -0.95907,-0.46852 -1.49931,-0.5843 -0.54024,-0.11578 -1.20149,-0.1819 -1.89061,-0.19294 -0.68913,-0.011 -1.40546,0.0331 -1.78045,-0.006 -0.37499,-0.0387 -0.40804,-0.15992 -0.25927,-0.33065 0.14877,-0.17072 0.47997,-0.39153 0.83258,-0.63394 0.3526,-0.24242 0.72777,-0.50725 1.16854,-0.80201 0.44077,-0.29476 0.94829,-0.62023 1.37825,-0.89033 0.42996,-0.2701 0.78272,-0.48507 0.76326,-0.87361 -0.0195,-0.38855 -0.41081,-0.95076 -0.88471,-1.03628 -0.47389,-0.0855 -1.03029,0.30561 -1.46323,0.59241 -0.43293,0.28681 -0.74121,0.46847 -1.11081,0.71393 -0.36959,0.24546 -0.79922,0.55391 -1.17417,0.80756 -0.37495,0.25365 -0.69441,0.45194 -1.05014,0.70838 -0.35572,0.25644 -0.74642,0.5701 -1.1125,0.86475 -0.36608,0.29464 -0.70565,0.56875 -0.71953,0.76482 -0.0139,0.19607 0.29842,0.31263 0.57045,0.44261 0.27204,0.12998 0.50363,0.27335 0.73709,0.43211 0.23346,0.15875 0.469,0.33303 0.41948,0.60856 -0.0495,0.27552 -0.38417,0.65236 -0.63658,0.92428 -0.25242,0.27192 -0.42187,0.43815 -0.63145,0.69767 -0.20959,0.25951 -0.45738,0.61004 -0.63171,1.06726 -0.17433,0.45722 -0.27402,1.01898 -0.34933,1.51805 -0.0753,0.49906 -0.12603,0.93424 -0.11125,1.37277 0.0148,0.43854 0.0951,0.87912 0.23079,1.28993 0.13568,0.4108 0.32648,0.79082 0.71688,1.25592 0.3904,0.46511 0.97946,1.01428 1.62189,1.38047 0.64244,0.36619 1.02886,0.46779 2.09789,0.63736 1.06904,0.16958 1.77977,0.21672 2.39605,0.18056 0.61627,-0.0362 0.71506,-0.0507 1.67333,-0.29885 z"
         id="path6228-4" />
      <path
         style="fill:#486cad;fill-opacity:1;stroke:#486caf;stroke-width:0.26458332px;stroke-linecap:butt;stroke-linejoin:miter;stroke-opacity:1"
         d="m 810.94484,204.17504 c 0.091,0.0221 0.27295,0.0661 0.53201,0.14332 0.25906,0.0772 0.5953,0.18742 0.90948,0.30318 0.31418,0.11576 0.60633,0.23703 0.93699,0.46851 0.33066,0.23148 0.69998,0.57324 1.01141,0.87915 0.31143,0.30592 0.56492,0.57594 0.79647,0.96184 0.23155,0.38589 0.4409,0.88721 0.5567,1.42199 0.1158,0.53477 0.13782,1.10207 0.091,1.6232 -0.0468,0.52113 -0.16245,0.9946 -0.36095,1.39178 -0.19849,0.39717 -0.47911,0.7163 -0.75498,0.95363 -0.27587,0.23732 -0.54521,0.39123 -0.7911,0.32779 -0.24589,-0.0634 -0.46598,-0.34405 -0.55415,-0.70248 -0.0882,-0.35844 -0.0441,-0.79386 0.008,-1.21832 0.0524,-0.42445 0.11301,-0.83784 0.0799,-1.18502 -0.0331,-0.34718 -0.1599,-0.62829 -0.34179,-0.9204 -0.18189,-0.29211 -0.41889,-0.59524 -0.74408,-0.86256 -0.32519,-0.26732 -0.73849,-0.49877 -1.15741,-0.63937 -0.41893,-0.14059 -0.84307,-0.19017 -1.27872,-0.18469 -0.43566,0.005 -0.8816,0.066 -1.23186,0.18731 -0.35026,0.12126 -0.60339,0.30285 -0.8545,0.58421 -0.25111,0.28136 -0.49871,0.66102 -0.70285,1.04165 -0.20414,0.38062 -0.36375,0.76038 -0.44655,1.20171 -0.0828,0.44133 -0.0883,0.94255 -0.0194,1.29824 0.0689,0.35569 0.21216,0.56505 0.27833,0.75789 0.0662,0.19285 0.0551,0.36918 -0.0827,0.4713 -0.13788,0.10213 -0.40199,0.12965 -0.74398,-0.0661 -0.34199,-0.19571 -0.7608,-0.61453 -1.04194,-1.16309 -0.28114,-0.54856 -0.42446,-1.22656 -0.47955,-1.79986 -0.0551,-0.57331 -0.022,-1.04184 0.0938,-1.55449 0.1158,-0.51265 0.31423,-1.06937 0.62851,-1.55717 0.31428,-0.4878 0.74421,-0.90671 1.18521,-1.24843 0.441,-0.34172 0.89299,-0.6063 1.39183,-0.76331 0.49884,-0.15702 1.04453,-0.20662 1.46621,-0.23142 0.42167,-0.0248 0.71933,-0.0248 0.95358,-0.011 0.23424,0.0138 0.40516,0.0414 0.4905,0.0551 0.0853,0.0138 0.0853,0.0138 0.17636,0.0359 z"
         id="path6232-7" />
    </g>
  </g>
</svg>
